<svg width="299" height="90" viewBox="0 0 299 90" fill="none" xmlns="http://www.w3.org/2000/svg">
<g filter="url(#filter0_d_40_181)">
<rect x="0.619873" y="65" width="289" height="15" fill="#323232"/>
<path d="M15.8599 7.8V53.64L12.3799 57.12C12.6199 57.36 13.9399 58.8 12.3799 59.88C10.6999 60.96 8.89987 61.32 8.89987 60.12V59.88V7.8L8.17987 7.08H16.5799L15.8599 7.8ZM8.17987 65.04L8.89987 64.32C8.89987 63.24 9.37987 62.16 10.2199 61.56C10.5799 61.2 11.1799 60.84 11.8999 60.6C14.4199 59.76 15.8599 60.6 15.8599 60.6V64.32L16.5799 65.04H8.17987ZM32.2999 67.08L22.9399 57.72V9.36C22.9399 7.68 23.0599 6 23.2999 4.32C23.4199 2.64 23.7799 1.08 24.2599 0H0.619873C0.979873 1.2 1.33987 2.64 1.57987 4.44C1.69987 6.12 1.81987 7.8 1.81987 9.48V62.64C1.81987 64.32 1.69987 66 1.57987 67.68C1.33987 69.48 0.979873 70.92 0.619873 72H24.2599C23.7799 71.04 23.5399 69.6 23.2999 68.04L27.2599 72L32.2999 67.08Z" fill="#FCFDFD"/>
<path d="M43.5142 64.92L44.2342 64.32V52.08C44.2342 51.24 45.1942 50.88 45.7942 51.36C48.4342 53.76 51.1942 64.32 51.1942 64.32L51.9142 64.92H43.5142ZM49.5142 53.16C49.5142 53.16 49.5142 53.16 49.6342 53.16C50.5942 53.4 51.1942 54.24 51.1942 55.2V59.16C51.1942 61.2 49.3942 56.76 49.0342 55.68C48.5542 54.72 47.9542 52.8 49.5142 53.16ZM58.2742 62.64V9.48C58.2742 7.8 58.3942 6.12 58.6342 4.44C58.7542 2.64 59.1143 1.2 59.5942 0H49.8742C50.3542 1.2 50.7142 2.64 50.9542 4.32C51.0742 6 51.1942 7.8 51.1942 9.48V51.84C51.1942 52.32 50.7142 52.8 50.2342 52.68C47.7142 52.44 46.1542 51.24 45.3142 50.04C44.5942 48.84 44.2342 47.64 44.2342 46.2V9.24C44.2342 7.56 44.3542 5.88 44.5942 4.2C44.8342 2.64 45.0742 1.08 45.5542 0H35.9542C36.3142 1.2 36.6742 2.64 36.9142 4.44C37.0342 6.12 37.1542 7.8 37.1542 9.48V62.64C37.1542 64.32 37.0342 66 36.9142 67.68C36.6742 69.48 36.3142 70.92 35.9542 72H59.5942C59.1143 70.92 58.7542 69.48 58.6342 67.68C58.3942 66 58.2742 64.32 58.2742 62.64Z" fill="#FCFDFD"/>
<path d="M71.8427 63.72C71.7227 63.84 71.6027 63.96 71.4827 64.08L70.6427 65.04C70.6427 65.04 69.8027 65.28 69.8027 65.52C69.8027 65.64 68.7227 66.12 68.7227 66.12C68.7227 66.12 69.4427 65.76 69.5627 65.4C69.6827 65.04 70.2827 64.8 70.2827 64.8L70.5227 64.44L70.2827 64.08C70.2827 64.08 70.6427 64.08 70.6427 64.56L71.1227 64.08L71.2427 63.96C71.2427 63.96 71.1227 63.48 71.3627 63.36C71.4827 63.12 71.4827 62.28 71.4827 62.28V58.8L70.6427 57.96H71.4827H71.8427C72.8027 58.08 73.8827 58.56 73.2827 60.84C73.0427 61.92 72.4427 62.88 71.8427 63.72ZM85.5227 65.04L73.5227 64.92C73.0427 64.92 72.8027 64.56 72.9227 64.08C73.0427 63.48 73.4027 62.64 73.8827 61.44C74.0027 61.44 74.0027 61.32 74.0027 61.2C74.9627 59.16 77.0027 57.96 79.2827 57.96H85.5227V50.88H70.6427L71.4827 50.04V7.92L70.6427 7.08H71.7227H85.5227C85.6427 4.2 86.1227 1.8 86.8427 0H63.2027C63.5627 1.2 63.9227 2.64 64.1627 4.44C64.2827 6.12 64.4027 7.8 64.4027 9.48V62.64C64.4027 64.32 64.2827 66 64.1627 67.68C63.9227 69.48 63.5627 70.92 63.2027 72H70.7627C71.0027 71.76 71.2427 71.52 71.3627 71.28C71.3627 71.04 71.3627 70.8 71.3627 70.56C71.4827 70.32 71.7227 70.2 71.7227 69.96C71.7227 69.6 71.3627 69.24 71.1227 69.24C71.0027 69.12 71.0027 69 71.1227 69C71.4827 68.88 71.9627 69.48 72.2027 69.48C72.2027 69.36 72.2027 69.36 72.2027 69.24C72.2027 69.12 72.0827 69 72.2027 68.88V68.76V68.64C72.4427 68.4 72.8027 68.28 73.0427 68.28C73.1627 68.28 73.1627 68.28 73.2827 68.16C73.4027 68.16 73.4027 68.4 73.2827 68.4C73.0427 68.4 72.9227 68.52 72.8027 68.52C72.5627 68.64 72.5627 68.88 72.4427 69.36C72.4427 69.48 72.5627 69.48 72.5627 69.6C72.5627 69.6 72.4427 69.72 72.4427 69.84C72.3227 69.96 72.0827 70.2 72.0827 70.44C72.0827 70.56 72.0827 70.8 72.0827 71.04C72.2027 71.16 72.3227 71.16 72.3227 71.16C72.4427 71.28 72.8027 71.4 72.8027 71.4C72.9227 71.4 72.9227 71.64 72.8027 71.64C72.5627 71.52 72.4427 71.52 72.2027 71.64C72.2027 71.76 72.2027 71.88 72.3227 71.76C72.4427 71.76 72.6827 71.76 72.8027 71.88C72.9227 71.88 73.0427 72 73.1627 72H85.5227H86.8427C86.1227 70.32 85.6427 67.92 85.5227 65.04Z" fill="#FCFDFD"/>
<path d="M112.771 18.48V17.76C112.771 17.28 113.131 17.04 113.491 16.92C114.571 16.92 115.411 16.56 115.891 16.2C116.011 15.96 116.371 16.08 116.491 16.2L119.731 19.32V20.04C119.731 20.52 119.251 21 118.651 20.88C116.251 20.52 114.571 19.92 113.371 19.44C113.011 19.32 112.771 18.96 112.771 18.48ZM112.771 25.32V20.88C112.771 20.52 113.251 20.4 113.371 20.76C113.731 21.36 114.091 22.2 114.091 23.52C114.091 24.72 113.731 25.32 113.371 25.56C113.131 25.8 112.771 25.56 112.771 25.32ZM105.451 36.84C105.211 37.8 104.491 38.76 102.931 38.16C102.811 38.04 102.811 38.04 102.691 38.04C101.251 37.32 100.051 36.12 99.4511 34.68C99.3311 34.44 99.2111 34.2 99.0911 33.96C98.8511 33.24 98.7311 32.52 98.7311 31.68V10.2L105.691 17.16V35.88C105.691 36.24 105.571 36.6 105.451 36.84ZM99.2111 38.28C98.9711 38.28 98.7311 38.04 98.7311 37.8V36.36C98.7311 36.24 98.8511 36.12 98.9711 36.12C99.6911 36.36 100.291 36.84 100.291 37.56C100.291 38.16 99.8111 38.28 99.2111 38.28ZM112.771 12.48L115.411 15.12C115.651 15.36 115.651 15.72 115.411 15.96C114.691 16.44 113.851 16.56 113.251 16.56C113.011 16.56 112.771 16.32 112.771 16.08V12.48ZM126.691 62.64V9.48C126.691 7.8 126.811 6.12 127.051 4.44C127.291 2.64 127.531 1.2 128.011 0H126.691H118.531C119.131 1.56 119.491 3.96 119.731 6.48V9.36L112.771 2.52V0H104.491C105.091 1.68 105.451 4.32 105.691 7.08L98.7311 0.119999V0H90.4511C90.8111 1.2 91.1711 2.64 91.4111 4.44C91.5311 6.12 91.6511 7.8 91.6511 9.48V62.64C91.6511 64.32 91.5311 66 91.4111 67.68C91.1711 69.48 90.8111 70.92 90.4511 72H100.051C99.5711 71.04 99.3311 69.6 99.0911 67.92C98.8511 66.36 98.7311 64.68 98.7311 63.12V40.32C98.7311 39.96 98.8511 39.72 98.9711 39.48C99.0911 39.48 99.2111 39.36 99.2111 39.36C99.3311 39.24 99.3311 39.24 99.3311 39.24C100.051 38.88 101.251 38.52 102.691 38.88C103.171 39 103.651 39.36 104.011 39.72C104.491 40.2 104.851 40.68 105.211 41.28C105.571 42 105.691 42.84 105.691 43.68V63.12C105.691 64.68 105.571 66.36 105.331 67.92C105.211 69.6 104.851 71.04 104.491 72H113.971C113.611 71.04 113.251 69.6 113.131 68.04C112.891 66.36 112.771 64.8 112.771 63.12V27.48C112.771 27 113.011 26.52 113.491 26.28C114.091 25.8 114.811 24.96 114.811 23.52C114.691 21.84 113.971 20.64 113.371 19.8C115.051 20.76 116.971 21.24 118.891 21.6C119.371 21.6 119.731 21.96 119.731 22.44V63.96C119.731 65.64 119.611 67.32 119.251 68.88C119.131 70.08 118.771 71.16 118.531 72H128.011C127.531 70.92 127.291 69.48 127.051 67.68C126.811 66 126.691 64.32 126.691 62.64Z" fill="#FCFDFD"/>
<path d="M151.688 65.04L152.408 64.2V63.6C152.408 60.24 155.528 57.72 158.888 58.32C159.128 58.32 159.368 58.56 159.368 58.92V64.2L160.208 65.04H151.688ZM152.888 49.8C156.728 57.24 155.288 57.96 153.728 57.72C153.008 57.48 152.408 56.88 152.408 56.04V49.92C152.408 49.68 152.768 49.56 152.888 49.8ZM166.448 62.64V20.16H151.688L152.408 19.44V7.68L151.808 7.08H166.448C166.568 4.2 167.048 1.8 167.768 0H144.128C144.488 1.2 144.848 2.64 145.088 4.44C145.208 6.12 145.328 7.8 145.328 9.48V27.24H160.208L159.368 28.08V55.2C159.368 55.68 159.008 56.04 158.528 56.04C156.488 56.28 155.048 53.76 153.968 51.12C152.888 48.36 152.408 45.48 152.408 42.6V36H145.328V62.64C145.328 64.32 145.208 66 145.088 67.68C144.848 69.48 144.488 70.92 144.128 72H167.768C167.288 70.92 166.928 69.48 166.808 67.68C166.568 66 166.448 64.32 166.448 62.64Z" fill="#FCFDFD"/>
<path d="M186.616 7.92V18.72C186.616 19.08 186.256 19.32 185.896 19.2C185.296 19.08 184.336 18.72 183.136 18.24C183.136 18.12 183.016 18.12 182.896 18.12C180.976 17.16 179.656 15.12 179.656 12.84V7.8L179.056 7.08H187.336L186.616 7.92ZM186.616 53.28C185.896 53.52 185.056 53.52 185.056 52.68C185.056 52.08 185.536 51.72 186.016 51.48C186.376 51.36 186.616 51.48 186.616 51.84V53.28ZM179.656 20.04C179.776 19.2 180.376 18.24 182.536 18.72C183.976 19.08 185.176 20.04 186.136 20.88C186.376 21.12 186.616 21.6 186.616 22.08V46.68C186.616 47.88 186.376 49.08 185.776 50.16C185.056 51.36 183.976 52.44 182.656 53.16C182.656 53.16 182.536 53.16 182.416 53.28C180.856 53.88 180.256 52.92 179.896 52.08C179.896 51.96 179.896 51.96 179.776 51.84C179.656 51.48 179.656 51.12 179.656 50.76V20.04ZM179.056 65.04L179.656 64.32V58.2C179.776 57 180.376 55.68 181.336 54.84C181.696 54.48 182.176 54.12 182.656 54C184.096 53.64 185.296 54 186.016 54.36C186.016 54.36 186.016 54.36 186.136 54.48C186.376 54.6 186.616 55.08 186.616 55.44V64.2L187.336 65.04H179.056ZM193.696 62.64V9.48C193.696 7.8 193.816 6.12 194.056 4.44C194.176 2.64 194.536 1.2 195.016 0H171.376C171.736 1.2 172.096 2.64 172.336 4.44C172.456 6.12 172.576 7.8 172.576 9.48V62.64C172.576 64.32 172.456 66 172.336 67.68C172.096 69.48 171.736 70.92 171.376 72H195.016C194.536 70.92 194.176 69.48 194.056 67.68C193.816 66 193.696 64.32 193.696 62.64Z" fill="#FCFDFD"/>
<path d="M206.185 64.92L206.905 64.32V52.08C206.905 51.24 207.865 50.88 208.465 51.36C211.105 53.76 213.865 64.32 213.865 64.32L214.585 64.92H206.185ZM212.185 53.16C212.185 53.16 212.185 53.16 212.305 53.16C213.265 53.4 213.865 54.24 213.865 55.2V59.16C213.865 61.2 212.065 56.76 211.705 55.68C211.225 54.72 210.625 52.8 212.185 53.16ZM220.945 62.64V9.48C220.945 7.8 221.065 6.12 221.305 4.44C221.425 2.64 221.785 1.2 222.265 0H212.545C213.025 1.2 213.385 2.64 213.625 4.32C213.745 6 213.865 7.8 213.865 9.48V51.84C213.865 52.32 213.385 52.8 212.905 52.68C210.385 52.44 208.825 51.24 207.985 50.04C207.265 48.84 206.905 47.64 206.905 46.2V9.24C206.905 7.56 207.025 5.88 207.265 4.2C207.505 2.64 207.745 1.08 208.225 0H198.625C198.985 1.2 199.345 2.64 199.585 4.44C199.705 6.12 199.825 7.8 199.825 9.48V62.64C199.825 64.32 199.705 66 199.585 67.68C199.345 69.48 198.985 70.92 198.625 72H222.265C221.785 70.92 221.425 69.48 221.305 67.68C221.065 66 220.945 64.32 220.945 62.64Z" fill="#FCFDFD"/>
<path d="M246.879 63.72C246.759 63.84 246.639 63.96 246.519 64.08L245.679 65.04C245.679 65.04 244.839 65.28 244.839 65.52C244.839 65.64 243.759 66.12 243.759 66.12C243.759 66.12 244.479 65.76 244.599 65.4C244.719 65.04 245.319 64.8 245.319 64.8L245.559 64.44L245.319 64.08C245.319 64.08 245.679 64.08 245.679 64.56L246.159 64.08L246.279 63.96C246.279 63.96 246.159 63.48 246.399 63.36C246.519 63.12 246.519 62.28 246.519 62.28V58.8L245.679 57.96H246.519H246.879C247.839 58.08 248.919 58.56 248.319 60.84C248.079 61.92 247.479 62.88 246.879 63.72ZM260.559 65.04L248.559 64.92C248.079 64.92 247.839 64.56 247.959 64.08C248.079 63.48 248.439 62.64 248.919 61.44C249.039 61.44 249.039 61.32 249.039 61.2C249.999 59.16 252.039 57.96 254.319 57.96H260.559V50.88H245.679L246.519 50.04V7.92L245.679 7.08H246.759H260.559C260.679 4.2 261.159 1.8 261.879 0H238.239C238.599 1.2 238.959 2.64 239.199 4.44C239.319 6.12 239.439 7.8 239.439 9.48V62.64C239.439 64.32 239.319 66 239.199 67.68C238.959 69.48 238.599 70.92 238.239 72H245.799C246.039 71.76 246.279 71.52 246.399 71.28C246.399 71.04 246.399 70.8 246.399 70.56C246.519 70.32 246.759 70.2 246.759 69.96C246.759 69.6 246.399 69.24 246.159 69.24C246.039 69.12 246.039 69 246.159 69C246.519 68.88 246.999 69.48 247.239 69.48C247.239 69.36 247.239 69.36 247.239 69.24C247.239 69.12 247.119 69 247.239 68.88V68.76V68.64C247.479 68.4 247.839 68.28 248.079 68.28C248.199 68.28 248.199 68.28 248.319 68.16C248.439 68.16 248.439 68.4 248.319 68.4C248.079 68.4 247.959 68.52 247.839 68.52C247.599 68.64 247.599 68.88 247.479 69.36C247.479 69.48 247.599 69.48 247.599 69.6C247.599 69.6 247.479 69.72 247.479 69.84C247.359 69.96 247.119 70.2 247.119 70.44C247.119 70.56 247.119 70.8 247.119 71.04C247.239 71.16 247.359 71.16 247.359 71.16C247.479 71.28 247.839 71.4 247.839 71.4C247.959 71.4 247.959 71.64 247.839 71.64C247.599 71.52 247.479 71.52 247.239 71.64C247.239 71.76 247.239 71.88 247.359 71.76C247.479 71.76 247.719 71.76 247.839 71.88C247.959 71.88 248.079 72 248.199 72H260.559H261.879C261.159 70.32 260.679 67.92 260.559 65.04Z" fill="#FCFDFD"/>
<path d="M273.047 64.92L273.767 64.32V52.08C273.767 51.24 274.727 50.88 275.327 51.36C277.967 53.76 280.727 64.32 280.727 64.32L281.447 64.92H273.047ZM279.047 53.16C279.047 53.16 279.047 53.16 279.167 53.16C280.127 53.4 280.727 54.24 280.727 55.2V59.16C280.727 61.2 278.927 56.76 278.567 55.68C278.087 54.72 277.487 52.8 279.047 53.16ZM287.807 62.64V9.48C287.807 7.8 287.927 6.12 288.167 4.44C288.287 2.64 288.647 1.2 289.127 0H279.407C279.887 1.2 280.247 2.64 280.487 4.32C280.607 6 280.727 7.8 280.727 9.48V51.84C280.727 52.32 280.247 52.8 279.767 52.68C277.247 52.44 275.687 51.24 274.847 50.04C274.127 48.84 273.767 47.64 273.767 46.2V9.24C273.767 7.56 273.887 5.88 274.127 4.2C274.367 2.64 274.607 1.08 275.087 0H265.487C265.847 1.2 266.207 2.64 266.447 4.44C266.567 6.12 266.687 7.8 266.687 9.48V62.64C266.687 64.32 266.567 66 266.447 67.68C266.207 69.48 265.847 70.92 265.487 72H289.127C288.647 70.92 288.287 69.48 288.167 67.68C287.927 66 287.807 64.32 287.807 62.64Z" fill="#FCFDFD"/>
</g>
<defs>
<filter id="filter0_d_40_181" x="0.619873" y="0" width="298" height="90" filterUnits="userSpaceOnUse" color-interpolation-filters="sRGB">
<feFlood flood-opacity="0" result="BackgroundImageFix"/>
<feColorMatrix in="SourceAlpha" type="matrix" values="0 0 0 0 0 0 0 0 0 0 0 0 0 0 0 0 0 0 127 0" result="hardAlpha"/>
<feOffset dx="5" dy="6"/>
<feGaussianBlur stdDeviation="2"/>
<feComposite in2="hardAlpha" operator="out"/>
<feColorMatrix type="matrix" values="0 0 0 0 0 0 0 0 0 0 0 0 0 0 0 0 0 0 0.25 0"/>
<feBlend mode="normal" in2="BackgroundImageFix" result="effect1_dropShadow_40_181"/>
<feBlend mode="normal" in="SourceGraphic" in2="effect1_dropShadow_40_181" result="shape"/>
</filter>
</defs>
</svg>
