<svg width="234" height="104" viewBox="0 0 234 104" fill="none" xmlns="http://www.w3.org/2000/svg">
<g filter="url(#filter0_d_40_173)">
<path d="M4.61987 89.5H109.62V95.5H4.61987V89.5Z" fill="#FC8600"/>
<path d="M38.3199 29.5V33.5C38.3199 34.3 37.6199 34.9 36.8199 34.8C35.3199 34.6 34.2199 33.8 33.6199 32.9C32.9199 32 32.5199 30.8 32.5199 29.7V29.5L31.9199 28.9H38.9199L38.3199 29.5ZM31.9199 66.1L32.5199 65.5V34.1C32.5199 33.7 33.1199 33.4 33.4199 33.8C34.6199 34.9 35.9199 35.4 36.9199 35.5C37.7199 35.7 38.3199 36.4 38.3199 37.2V65.6L38.9199 66.1H31.9199ZM35.2199 72.6C34.8199 73.1 34.0199 73.7 33.2199 74.1C32.9199 74.2 32.5199 74 32.5199 73.7V72.7V72H35.0199C35.2199 72 35.4199 72.4 35.2199 72.6ZM25.6199 23C25.9199 24 26.2199 25.2 26.4199 26.7C26.5199 28.1 26.6199 29.5 26.6199 30.9V72V75.2C26.6199 76.6 26.5199 78 26.4199 79.4C26.2199 80.9 25.9199 82.1 25.6199 83H33.6199C33.2199 82.1 33.0199 80.9 32.8199 79.4C32.5199 77.6 33.1199 75.7 34.2199 74.3C34.3199 74.3 34.3199 74.2 34.4199 74.2C35.4199 73.1 36.8199 72.1 39.0199 72H39.5199C39.8199 72 40.2199 72 40.5199 72.1C41.3199 72.2 42.4199 72.7 42.5199 73.8C42.5199 75.7 41.8199 76.9 42.5199 77.2C43.2199 77.4 42.9199 76.2 42.9199 74.6C42.9199 73.2 43.0199 72.3 43.5199 72.1C43.6199 72 44.2199 72 44.2199 72V30.7C44.2199 29.3 44.3199 27.9 44.5199 26.5C44.6199 25.2 44.9199 23.9 45.3199 23H25.6199Z" fill="#FC8600"/>
<path d="M61.0269 29.6V38.6C61.0269 38.9 60.7269 39.1 60.4269 39C59.9269 38.9 59.1269 38.6 58.1269 38.2C58.1269 38.1 58.0269 38.1 57.9269 38.1C56.3269 37.3 55.2269 35.6 55.2269 33.7V29.5L54.7269 28.9H61.6269L61.0269 29.6ZM61.0269 67.4C60.4269 67.6 59.7269 67.6 59.7269 66.9C59.7269 66.4 60.1269 66.1 60.5269 65.9C60.8269 65.8 61.0269 65.9 61.0269 66.2V67.4ZM55.2269 39.7C55.3269 39 55.8269 38.2 57.6269 38.6C58.8269 38.9 59.8269 39.7 60.6269 40.4C60.8269 40.6 61.0269 41 61.0269 41.4V61.9C61.0269 62.9 60.8269 63.9 60.3269 64.8C59.7269 65.8 58.8269 66.7 57.7269 67.3C57.7269 67.3 57.6269 67.3 57.5269 67.4C56.2269 67.9 55.7269 67.1 55.4269 66.4C55.4269 66.3 55.4269 66.3 55.3269 66.2C55.2269 65.9 55.2269 65.6 55.2269 65.3V39.7ZM54.7269 77.2L55.2269 76.6V71.5C55.3269 70.5 55.8269 69.4 56.6269 68.7C56.9269 68.4 57.3269 68.1 57.7269 68C58.9269 67.7 59.9269 68 60.5269 68.3C60.5269 68.3 60.5269 68.3 60.6269 68.4C60.8269 68.5 61.0269 68.9 61.0269 69.2V76.5L61.6269 77.2H54.7269ZM66.9269 75.2V30.9C66.9269 29.5 67.0269 28.1 67.2269 26.7C67.3269 25.2 67.6269 24 68.0269 23H48.3269C48.6269 24 48.9269 25.2 49.1269 26.7C49.2269 28.1 49.3269 29.5 49.3269 30.9V75.2C49.3269 76.6 49.2269 78 49.1269 79.4C48.9269 80.9 48.6269 82.1 48.3269 83H68.0269C67.6269 82.1 67.3269 80.9 67.2269 79.4C67.0269 78 66.9269 76.6 66.9269 75.2Z" fill="#FC8600"/>
<path d="M83.7339 56.2C83.7339 56.3 83.1339 57.4 80.9339 58.7C79.5339 59.4 78.8339 58.9 78.4339 58.4C78.1339 58 77.9339 57.5 77.9339 57V50.4L83.7339 56.2ZM83.7339 60.1C83.7339 60.1 82.0339 59.9 82.2339 58.7C82.4339 57.9 82.8339 57.4 83.2339 57.2C83.4339 57 83.7339 57.2 83.7339 57.4V60.1ZM84.3339 28.9L83.7339 29.5V30.8C83.7339 31.1 83.4339 31.4 83.1339 31.4C80.8339 31.5 79.1339 30 78.4339 29.3C78.3339 29.2 78.4339 28.9 78.5339 28.9H84.3339ZM83.7339 37.7L78.6339 42.8L77.9339 42.1V30.4C77.9339 30.1 78.3339 30 78.5339 30.2C79.7339 31.3 81.7339 31.8 82.9339 32C83.3339 32.1 83.7339 32.6 83.7339 33.1V37.7ZM89.6339 75.2V54L82.8339 46.9L89.6339 39.9V30.9C89.6339 29.5 89.7339 28.1 89.9339 26.7C90.0339 25.2 90.3339 24 90.7339 23H71.0339C71.3339 24 71.6339 25.2 71.8339 26.7C71.9339 28.1 72.0339 29.5 72.0339 30.9V75.2C72.0339 76.6 71.9339 78 71.8339 79.4C71.6339 80.9 71.3339 82.1 71.0339 83H79.0339C78.6339 82.1 78.4339 80.9 78.2339 79.4C78.0339 78 77.9339 76.6 77.9339 75.2V62.3C77.9339 61.4 78.3339 60.5 79.1339 59.9C79.2339 59.9 79.2339 59.8 79.2339 59.8C81.1339 58.5 83.7339 59.9 83.7339 62.2V75.2C83.7339 76.6 83.6339 78 83.5339 79.4C83.3339 80.9 83.0339 82.1 82.6339 83H90.7339C90.3339 82.1 90.0339 80.9 89.9339 79.4C89.7339 78 89.6339 76.6 89.6339 75.2Z" fill="#FC8600"/>
<path d="M105.941 28.9H106.841C106.841 29 106.941 29.1 106.941 29.3C106.941 29.6 106.541 29.5 106.541 29.5L105.941 28.9ZM107.241 29.2C107.441 29.1 108.241 29 108.741 28.9H112.341C112.441 26.5 112.841 24.5 113.441 23.1H93.741C94.341 24.5 94.641 26.5 94.741 28.9H101.141L100.641 29.5V75.5C100.641 76.9 100.541 78.2 100.341 79.6C100.141 81 99.941 82.2 99.541 83.1H107.541C107.141 82.2 106.941 81.1 106.741 79.8C106.541 78.5 106.541 77.2 106.541 75.9V31.6C106.541 29.4 106.941 29.4 107.241 29.2Z" fill="#FC8600"/>
<path d="M126.148 40.8C126.248 40.8 126.348 41 126.248 41.1C125.748 41.6 124.748 42.7 123.348 43.1V41.4L122.748 40.8H126.148ZM116.448 23.1C116.748 24 117.048 25.2 117.248 26.6C117.348 28 117.448 29.4 117.448 30.8V49.1L118.348 49.7C118.348 49.7 118.648 50.2 118.948 50.2C119.248 50.2 119.748 50.2 119.748 50.2C119.748 50.2 119.948 50.2 120.148 50.5C120.448 50.9 120.448 50.9 120.648 51C120.948 51 121.048 51 121.148 51.1C121.248 51.2 121.448 51 121.448 51.5C121.448 52 121.248 51.7 121.348 52.1C121.448 52.5 121.948 53.5 121.948 53.5L121.348 52.7C121.348 52.7 121.248 52.6 121.248 52.5C121.148 52.4 121.148 52.4 121.048 52.2C121.048 52 120.948 52.3 121.048 52C121.148 51.7 121.148 51.7 121.148 51.7V51.3H120.848H120.448C120.448 51.3 120.448 51.2 120.248 51C120.048 50.8 119.948 50.7 119.948 50.7C119.948 50.7 119.848 50.7 119.748 50.7C119.648 50.7 119.648 50.7 119.848 50.9C119.948 51.2 119.948 51.2 119.948 51.2L120.148 51.4C120.148 51.4 119.848 51.4 120.048 51.7C120.348 52 120.148 52.3 120.148 52.3C120.148 52.3 120.048 51.8 119.948 51.6C119.748 51.4 119.748 51.4 119.748 51.4C119.748 51.4 119.548 51.3 119.648 51.3C119.748 51.2 119.748 51.2 119.748 51.2C119.748 51.2 119.748 51.1 119.748 51C119.748 51 119.748 51 119.648 51C119.648 50.8 119.548 50.8 119.548 50.8V50.7V50.6L119.348 50.5C119.248 50.4 119.248 50.5 119.148 50.4C119.048 50.4 118.948 50.4 118.948 50.4C118.748 50.4 118.648 50.4 118.648 50.4C118.648 50.3 118.748 50.3 118.748 50.3C118.748 50.3 118.748 50.3 118.648 50.2C118.448 50.1 118.348 50 118.348 50C118.248 49.9 117.948 49.8 117.948 49.8C117.948 49.8 117.748 49.6 117.648 49.6C117.648 49.7 117.648 49.7 117.648 49.7L117.548 49.8C117.548 49.8 117.648 49.6 117.548 49.6C117.548 49.5 117.448 49.4 117.448 49.5V49.9C117.548 50.1 117.448 50.1 117.548 50.2C117.548 50.4 117.448 50.3 117.448 50.4C117.448 50.6 117.548 50.6 117.448 50.7V75.3C117.448 76.7 117.348 78.1 117.248 79.5C117.048 80.9 116.748 82.1 116.448 83.1L124.448 83C124.048 82.1 123.748 80.9 123.648 79.5C123.448 78.1 123.348 76.7 123.348 75.3V47.9C123.348 46 124.048 44.3 125.248 42.9C126.248 41.8 127.648 40.9 129.748 40.8H130.648C131.548 40.8 133.248 41.1 133.348 42.6C133.348 44.5 132.548 45.7 133.348 45.9C134.048 46.2 133.748 45 133.748 43.3C133.748 42 133.848 41.1 134.348 40.8C134.448 40.8 134.548 40.8 134.648 40.8H135.048V34.9H122.748L123.348 34.2V29.6L122.748 29L135.048 28.9V28.8C135.148 26.4 135.548 24.5 136.148 23L116.448 23.1Z" fill="#FC8600"/>
<path d="M151.855 29.6V38.6C151.855 38.9 151.555 39.1 151.255 39C150.755 38.9 149.955 38.6 148.955 38.2C148.955 38.1 148.855 38.1 148.755 38.1C147.155 37.3 146.055 35.6 146.055 33.7V29.5L145.555 28.9H152.455L151.855 29.6ZM151.855 67.4C151.255 67.6 150.555 67.6 150.555 66.9C150.555 66.4 150.955 66.1 151.355 65.9C151.655 65.8 151.855 65.9 151.855 66.2V67.4ZM146.055 39.7C146.155 39 146.655 38.2 148.455 38.6C149.655 38.9 150.655 39.7 151.455 40.4C151.655 40.6 151.855 41 151.855 41.4V61.9C151.855 62.9 151.655 63.9 151.155 64.8C150.555 65.8 149.655 66.7 148.555 67.3C148.555 67.3 148.455 67.3 148.355 67.4C147.055 67.9 146.555 67.1 146.255 66.4C146.255 66.3 146.255 66.3 146.155 66.2C146.055 65.9 146.055 65.6 146.055 65.3V39.7ZM145.555 77.2L146.055 76.6V71.5C146.155 70.5 146.655 69.4 147.455 68.7C147.755 68.4 148.155 68.1 148.555 68C149.755 67.7 150.755 68 151.355 68.3C151.355 68.3 151.355 68.3 151.455 68.4C151.655 68.5 151.855 68.9 151.855 69.2V76.5L152.455 77.2H145.555ZM157.755 75.2V30.9C157.755 29.5 157.855 28.1 158.055 26.7C158.155 25.2 158.455 24 158.855 23H139.155C139.455 24 139.755 25.2 139.955 26.7C140.055 28.1 140.155 29.5 140.155 30.9V75.2C140.155 76.6 140.055 78 139.955 79.4C139.755 80.9 139.455 82.1 139.155 83H158.855C158.455 82.1 158.155 80.9 158.055 79.4C157.855 78 157.755 76.6 157.755 75.2Z" fill="#FC8600"/>
<path d="M168.762 76.5V74.6C169.062 74.6 169.562 74.5 169.762 74.1C169.862 74 170.062 74 170.162 74.1C170.562 74.9 171.162 75.7 171.662 76.2C172.362 76.9 172.262 77.1 171.962 77.2H168.162L168.762 76.5ZM168.862 72C168.962 71.8 169.062 71.8 169.162 72.1C169.262 72.3 169.462 72.9 169.862 73.6C169.862 73.6 169.662 74.3 169.062 74.4C168.962 74.4 168.762 74.3 168.762 74.2V72.3C168.762 72.2 168.762 72.1 168.862 72ZM162.362 81C162.162 81.8 161.962 82.6 161.862 83.1L181.562 83C180.962 81.6 180.562 79.6 180.462 77.2H175.362C172.562 77.2 170.862 75.1 169.862 73.2C169.162 71.6 168.762 69.8 168.762 68V30.7C168.762 29.3 168.862 27.9 169.062 26.5C169.262 25.2 169.462 23.9 169.862 23L161.862 23.1C162.162 23.9 162.462 25.2 162.662 26.5C162.762 27.9 162.862 29.3 162.862 30.6V74.9C162.862 77 162.762 79 162.362 81Z" fill="#FC8600"/>
<path d="M191.769 26.7C191.969 25.2 192.169 24 192.569 23H184.569C184.869 24 185.169 25.2 185.369 26.7C185.469 28.1 185.569 29.5 185.569 30.9V75.2C185.569 76.6 185.469 78 185.369 79.4C185.169 80.9 184.869 82.1 184.569 83H192.569C192.169 82.1 191.969 80.9 191.769 79.4C191.569 78 191.469 76.6 191.469 75.2V30.9C191.469 29.5 191.569 28.1 191.769 26.7Z" fill="#FC8600"/>
<path d="M208.257 29.6V38.6C208.257 38.9 207.957 39.1 207.657 39C207.157 38.9 206.357 38.6 205.357 38.2C205.357 38.1 205.257 38.1 205.157 38.1C203.557 37.3 202.457 35.6 202.457 33.7V29.5L201.957 28.9H208.857L208.257 29.6ZM208.257 67.4C207.657 67.6 206.957 67.6 206.957 66.9C206.957 66.4 207.357 66.1 207.757 65.9C208.057 65.8 208.257 65.9 208.257 66.2V67.4ZM202.457 39.7C202.557 39 203.057 38.2 204.857 38.6C206.057 38.9 207.057 39.7 207.857 40.4C208.057 40.6 208.257 41 208.257 41.4V61.9C208.257 62.9 208.057 63.9 207.557 64.8C206.957 65.8 206.057 66.7 204.957 67.3C204.957 67.3 204.857 67.3 204.757 67.4C203.457 67.9 202.957 67.1 202.657 66.4C202.657 66.3 202.657 66.3 202.557 66.2C202.457 65.9 202.457 65.6 202.457 65.3V39.7ZM201.957 77.2L202.457 76.6V71.5C202.557 70.5 203.057 69.4 203.857 68.7C204.157 68.4 204.557 68.1 204.957 68C206.157 67.7 207.157 68 207.757 68.3C207.757 68.3 207.757 68.3 207.857 68.4C208.057 68.5 208.257 68.9 208.257 69.2V76.5L208.857 77.2H201.957ZM214.157 75.2V30.9C214.157 29.5 214.257 28.1 214.457 26.7C214.557 25.2 214.857 24 215.257 23H195.557C195.857 24 196.157 25.2 196.357 26.7C196.457 28.1 196.557 29.5 196.557 30.9V75.2C196.557 76.6 196.457 78 196.357 79.4C196.157 80.9 195.857 82.1 195.557 83H215.257C214.857 82.1 214.557 80.9 214.457 79.4C214.257 78 214.157 76.6 214.157 75.2Z" fill="#FC8600"/>
<path d="M216.764 75.9C216.764 73.4333 217.364 71.7 218.564 70.7C219.764 69.7 221.198 69.2 222.864 69.2C224.598 69.2 226.064 69.7 227.264 70.7C228.531 71.7 229.164 73.4333 229.164 75.9C229.164 78.3 228.531 80.0333 227.264 81.1C226.064 82.1667 224.598 82.7 222.864 82.7C221.198 82.7 219.764 82.1667 218.564 81.1C217.364 80.0333 216.764 78.3 216.764 75.9Z" fill="#FC8600"/>
<path d="M155.839 4.58912C156.198 4.39437 156.52 4.25994 156.99 4.27253L150.097 0C150.231 0.361259 150.34 0.762726 150.325 1.1711C150.237 1.50596 150.148 1.84082 149.974 2.12228L144.453 11.0283C144.279 11.3098 144.018 11.5378 143.758 11.7659C143.399 11.9606 142.991 12.0416 142.62 12.0624L149.513 16.3349C149.28 15.9403 149.257 15.5923 149.272 15.1839C149.274 14.7956 149.362 14.4608 149.537 14.1793L155.057 5.27327C155.232 4.99181 155.492 4.76376 155.839 4.58912Z" fill="#FC8600"/>
</g>
<defs>
<filter id="filter0_d_40_173" x="0.619873" y="0" width="232.545" height="103.5" filterUnits="userSpaceOnUse" color-interpolation-filters="sRGB">
<feFlood flood-opacity="0" result="BackgroundImageFix"/>
<feColorMatrix in="SourceAlpha" type="matrix" values="0 0 0 0 0 0 0 0 0 0 0 0 0 0 0 0 0 0 127 0" result="hardAlpha"/>
<feOffset dy="4"/>
<feGaussianBlur stdDeviation="2"/>
<feComposite in2="hardAlpha" operator="out"/>
<feColorMatrix type="matrix" values="0 0 0 0 0 0 0 0 0 0 0 0 0 0 0 0 0 0 0.25 0"/>
<feBlend mode="normal" in2="BackgroundImageFix" result="effect1_dropShadow_40_173"/>
<feBlend mode="normal" in="SourceGraphic" in2="effect1_dropShadow_40_173" result="shape"/>
</filter>
</defs>
</svg>
