<svg width="37" height="37" viewBox="0 0 37 37" fill="none" xmlns="http://www.w3.org/2000/svg">
<path d="M12.3894 9.89133C12.7431 9.90461 13.0952 9.94581 13.4424 10.0145C13.6552 10.0145 13.8456 10.3506 13.9576 10.5746C14.4617 11.7621 14.9658 12.9495 15.4027 14.1593C15.6491 14.7978 15.2011 15.4139 14.2825 16.4781C14.1413 16.6083 14.0505 16.7841 14.0259 16.9745C14.0013 17.165 14.0446 17.3581 14.1481 17.5199C15.5612 20.0267 17.8029 21.9635 20.4884 22.9976C20.5995 23.0395 20.717 23.0622 20.8357 23.0648C20.9576 23.0614 21.077 23.0292 21.1841 22.9708C21.2911 22.9124 21.3829 22.8294 21.4518 22.7288C22.6392 21.3061 22.9752 20.6788 23.4569 20.6788C23.5948 20.6834 23.7295 20.7219 23.849 20.7908C27.5457 22.5608 27.8369 22.628 27.8481 23.0312C27.8627 23.5867 27.7624 24.1391 27.5534 24.6539C27.3444 25.1687 27.0313 25.6348 26.6338 26.0229C26.2362 26.411 25.7627 26.7128 25.243 26.9093C24.7233 27.1058 24.1687 27.1927 23.6138 27.1648H23.3449C19.7603 27.0416 14.0697 24.2074 10.205 17.4078C9.50534 16.3136 9.21282 15.0082 9.3787 13.72C9.54459 12.4318 10.1583 11.2431 11.1124 10.3618C11.4596 10.0432 11.9184 9.87416 12.3894 9.89133Z" fill="white"/>
<path d="M36.6865 14.9658C37.2978 18.3439 36.9575 21.8254 35.7036 25.0211C34.4497 28.2168 32.3316 31.0008 29.5861 33.0616C26.8405 35.1225 23.5759 36.3791 20.1572 36.6908C16.7385 37.0026 13.3004 36.3572 10.2274 34.8269C9.98965 34.7135 9.72909 34.656 9.46568 34.6589C9.34681 34.6417 9.22608 34.6417 9.10721 34.6589C4.22315 35.8799 0.985773 36.7873 0 36.9889C0.212837 36.1936 0.403293 35.4991 0.582524 34.7485C1.20983 32.5081 1.85953 30.2677 2.45323 28.0273C2.53591 27.672 2.50456 27.2996 2.36363 26.9631C1.07486 24.4661 0.372776 21.7079 0.310816 18.8985C0.248857 16.0892 0.828656 13.3027 2.00609 10.7513C3.18351 8.19983 4.92751 5.95063 7.10536 4.1749C9.28321 2.39916 11.8375 1.1437 14.5738 0.504088C15.9906 0.16846 17.4417 -0.000709983 18.8977 2.2395e-06C23.1462 0.0159467 27.2542 1.5229 30.5052 4.258C33.7562 6.9931 35.9438 10.7827 36.6865 14.9658ZM20.9029 33.5499C24.9092 32.9113 28.5052 30.7266 30.9181 27.4653C33.3311 24.204 34.3685 20.1264 33.8075 16.1084C33.2974 12.4838 31.4955 9.16532 28.7334 6.76342C25.9713 4.36153 22.4349 3.0378 18.7745 3.03574C17.8356 3.0353 16.8984 3.11777 15.974 3.28218C13.5757 3.71705 11.3145 4.71367 9.37543 6.19046C7.43636 7.66725 5.87455 9.58224 4.81786 11.7787C3.76117 13.9751 3.23962 16.3906 3.29591 18.8273C3.3522 21.2641 3.98471 23.6528 5.1417 25.7981C5.42886 26.2206 5.60768 26.7073 5.66238 27.2152C5.71708 27.7231 5.64597 28.2367 5.45535 28.7106C4.99607 30.0101 4.71602 31.3431 4.33516 32.8106C6.16108 32.3289 7.85258 31.9144 9.52168 31.4439C9.7309 31.3781 9.9522 31.3601 10.1693 31.3911C10.3864 31.4221 10.5939 31.5014 10.7763 31.6232C13.0936 33.006 15.7399 33.7411 18.4384 33.7515C19.2751 33.7503 20.1104 33.6829 20.9365 33.5499" fill="white"/>
</svg>
