<svg width="386" height="85" viewBox="0 0 386 85" fill="none" xmlns="http://www.w3.org/2000/svg">
<g filter="url(#filter0_d_33_121)">
<rect x="4" y="62" width="377" height="15" fill="#FC8600"/>
<path d="M26.32 18.48V17.76C26.32 17.28 26.68 17.04 27.04 16.92C28.12 16.92 28.96 16.56 29.44 16.2C29.56 15.96 29.92 16.08 30.04 16.2L33.28 19.32V20.04C33.28 20.52 32.8 21 32.2 20.88C29.8 20.52 28.12 19.92 26.92 19.44C26.56 19.32 26.32 18.96 26.32 18.48ZM26.32 25.32V20.88C26.32 20.52 26.8 20.4 26.92 20.76C27.28 21.36 27.64 22.2 27.64 23.52C27.64 24.72 27.28 25.32 26.92 25.56C26.68 25.8 26.32 25.56 26.32 25.32ZM19 36.84C18.76 37.8 18.04 38.76 16.48 38.16C16.36 38.04 16.36 38.04 16.24 38.04C14.8 37.32 13.6 36.12 13 34.68C12.88 34.44 12.76 34.2 12.64 33.96C12.4 33.24 12.28 32.52 12.28 31.68V10.2L19.24 17.16V35.88C19.24 36.24 19.12 36.6 19 36.84ZM12.76 38.28C12.52 38.28 12.28 38.04 12.28 37.8V36.36C12.28 36.24 12.4 36.12 12.52 36.12C13.24 36.36 13.84 36.84 13.84 37.56C13.84 38.16 13.36 38.28 12.76 38.28ZM26.32 12.48L28.96 15.12C29.2 15.36 29.2 15.72 28.96 15.96C28.24 16.44 27.4 16.56 26.8 16.56C26.56 16.56 26.32 16.32 26.32 16.08V12.48ZM40.24 62.64V9.48C40.24 7.8 40.36 6.12 40.6 4.44C40.84 2.64 41.08 1.2 41.56 0H40.24H32.08C32.68 1.56 33.04 3.96 33.28 6.48V9.36L26.32 2.52V0H18.04C18.64 1.68 19 4.32 19.24 7.08L12.28 0.119999V0H4C4.36 1.2 4.72 2.64 4.96 4.44C5.08 6.12 5.2 7.8 5.2 9.48V62.64C5.2 64.32 5.08 66 4.96 67.68C4.72 69.48 4.36 70.92 4 72H13.6C13.12 71.04 12.88 69.6 12.64 67.92C12.4 66.36 12.28 64.68 12.28 63.12V40.32C12.28 39.96 12.4 39.72 12.52 39.48C12.64 39.48 12.76 39.36 12.76 39.36C12.88 39.24 12.88 39.24 12.88 39.24C13.6 38.88 14.8 38.52 16.24 38.88C16.72 39 17.2 39.36 17.56 39.72C18.04 40.2 18.4 40.68 18.76 41.28C19.12 42 19.24 42.84 19.24 43.68V63.12C19.24 64.68 19.12 66.36 18.88 67.92C18.76 69.6 18.4 71.04 18.04 72H27.52C27.16 71.04 26.8 69.6 26.68 68.04C26.44 66.36 26.32 64.8 26.32 63.12V27.48C26.32 27 26.56 26.52 27.04 26.28C27.64 25.8 28.36 24.96 28.36 23.52C28.24 21.84 27.52 20.64 26.92 19.8C28.6 20.76 30.52 21.24 32.44 21.6C32.92 21.6 33.28 21.96 33.28 22.44V63.96C33.28 65.64 33.16 67.32 32.8 68.88C32.68 70.08 32.32 71.16 32.08 72H41.56C41.08 70.92 40.84 69.48 40.6 67.68C40.36 66 40.24 64.32 40.24 62.64Z" fill="white"/>
<path d="M53.9509 63.72C53.8309 63.84 53.7109 63.96 53.5909 64.08L52.7509 65.04C52.7509 65.04 51.9109 65.28 51.9109 65.52C51.9109 65.64 50.8309 66.12 50.8309 66.12C50.8309 66.12 51.5509 65.76 51.6709 65.4C51.7909 65.04 52.3909 64.8 52.3909 64.8L52.6309 64.44L52.3909 64.08C52.3909 64.08 52.7509 64.08 52.7509 64.56L53.2309 64.08L53.3509 63.96C53.3509 63.96 53.2309 63.48 53.4709 63.36C53.5909 63.12 53.5909 62.28 53.5909 62.28V58.8L52.7509 57.96H53.5909H53.9509C54.9109 58.08 55.9909 58.56 55.3909 60.84C55.1509 61.92 54.5509 62.88 53.9509 63.72ZM67.6309 65.04L55.6309 64.92C55.1509 64.92 54.9109 64.56 55.0309 64.08C55.1509 63.48 55.5109 62.64 55.9909 61.44C56.1109 61.44 56.1109 61.32 56.1109 61.2C57.0709 59.16 59.1109 57.96 61.3909 57.96H67.6309V50.88H52.7509L53.5909 50.04V7.92L52.7509 7.08H53.8309H67.6309C67.7509 4.2 68.2309 1.8 68.9509 0H45.3109C45.6709 1.2 46.0309 2.64 46.2709 4.44C46.3909 6.12 46.5109 7.8 46.5109 9.48V62.64C46.5109 64.32 46.3909 66 46.2709 67.68C46.0309 69.48 45.6709 70.92 45.3109 72H52.8709C53.1109 71.76 53.3509 71.52 53.4709 71.28C53.4709 71.04 53.4709 70.8 53.4709 70.56C53.5909 70.32 53.8309 70.2 53.8309 69.96C53.8309 69.6 53.4709 69.24 53.2309 69.24C53.1109 69.12 53.1109 69 53.2309 69C53.5909 68.88 54.0709 69.48 54.3109 69.48C54.3109 69.36 54.3109 69.36 54.3109 69.24C54.3109 69.12 54.1909 69 54.3109 68.88V68.76V68.64C54.5509 68.4 54.9109 68.28 55.1509 68.28C55.2709 68.28 55.2709 68.28 55.3909 68.16C55.5109 68.16 55.5109 68.4 55.3909 68.4C55.1509 68.4 55.0309 68.52 54.9109 68.52C54.6709 68.64 54.6709 68.88 54.5509 69.36C54.5509 69.48 54.6709 69.48 54.6709 69.6C54.6709 69.6 54.5509 69.72 54.5509 69.84C54.4309 69.96 54.1909 70.2 54.1909 70.44C54.1909 70.56 54.1909 70.8 54.1909 71.04C54.3109 71.16 54.4309 71.16 54.4309 71.16C54.5509 71.28 54.9109 71.4 54.9109 71.4C55.0309 71.4 55.0309 71.64 54.9109 71.64C54.6709 71.52 54.5509 71.52 54.3109 71.64C54.3109 71.76 54.3109 71.88 54.4309 71.76C54.5509 71.76 54.7909 71.76 54.9109 71.88C55.0309 71.88 55.1509 72 55.2709 72H67.6309H68.9509C68.2309 70.32 67.7509 67.92 67.6309 65.04Z" fill="white"/>
<path d="M80.1194 64.92L80.8394 64.32V52.08C80.8394 51.24 81.7994 50.88 82.3994 51.36C85.0394 53.76 87.7994 64.32 87.7994 64.32L88.5194 64.92H80.1194ZM86.1194 53.16C86.1194 53.16 86.1194 53.16 86.2394 53.16C87.1994 53.4 87.7994 54.24 87.7994 55.2V59.16C87.7994 61.2 85.9994 56.76 85.6394 55.68C85.1594 54.72 84.5594 52.8 86.1194 53.16ZM94.8794 62.64V9.48C94.8794 7.8 94.9994 6.12 95.2394 4.44C95.3594 2.64 95.7194 1.2 96.1994 0H86.4794C86.9594 1.2 87.3194 2.64 87.5594 4.32C87.6794 6 87.7994 7.8 87.7994 9.48V51.84C87.7994 52.32 87.3194 52.8 86.8394 52.68C84.3194 52.44 82.7594 51.24 81.9194 50.04C81.1994 48.84 80.8394 47.64 80.8394 46.2V9.24C80.8394 7.56 80.9594 5.88 81.1994 4.2C81.4394 2.64 81.6794 1.08 82.1594 0H72.5594C72.9194 1.2 73.2794 2.64 73.5194 4.44C73.6394 6.12 73.7594 7.8 73.7594 9.48V62.64C73.7594 64.32 73.6394 66 73.5194 67.68C73.2794 69.48 72.9194 70.92 72.5594 72H96.1994C95.7194 70.92 95.3594 69.48 95.2394 67.68C94.9994 66 94.8794 64.32 94.8794 62.64Z" fill="white"/>
<path d="M107.368 65.04L108.088 64.2V63.6C108.088 60.24 111.208 57.72 114.568 58.32C114.808 58.32 115.048 58.56 115.048 58.92V64.2L115.888 65.04H107.368ZM108.568 49.8C112.408 57.24 110.968 57.96 109.408 57.72C108.688 57.48 108.088 56.88 108.088 56.04V49.92C108.088 49.68 108.448 49.56 108.568 49.8ZM122.128 62.64V20.16H107.368L108.088 19.44V7.68L107.488 7.08H122.128C122.248 4.2 122.728 1.8 123.448 0H99.8078C100.168 1.2 100.528 2.64 100.768 4.44C100.888 6.12 101.008 7.8 101.008 9.48V27.24H115.888L115.048 28.08V55.2C115.048 55.68 114.688 56.04 114.208 56.04C112.168 56.28 110.728 53.76 109.648 51.12C108.568 48.36 108.088 45.48 108.088 42.6V36H101.008V62.64C101.008 64.32 100.888 66 100.768 67.68C100.528 69.48 100.168 70.92 99.8078 72H123.448C122.968 70.92 122.608 69.48 122.488 67.68C122.248 66 122.128 64.32 122.128 62.64Z" fill="white"/>
<path d="M154.062 7.08H155.142C155.142 7.2 155.262 7.32 155.262 7.56001C155.262 7.92 154.782 7.8 154.782 7.8L154.062 7.08ZM155.622 7.44C155.862 7.32 156.822 7.2 157.422 7.08H161.742C161.862 4.2 162.342 1.8 163.062 0.119999H139.422C140.142 1.8 140.502 4.2 140.622 7.08H148.302L147.702 7.8V63C147.702 64.68 147.582 66.24 147.342 67.92C147.102 69.6 146.862 71.04 146.382 72.12H155.982C155.502 71.04 155.262 69.72 155.022 68.16C154.782 66.6 154.782 65.04 154.782 63.48V10.32C154.782 7.68 155.262 7.68 155.622 7.44Z" fill="white"/>
<path d="M181.91 39.84C181.91 39.96 181.19 41.28 178.55 42.84C176.87 43.68 176.03 43.08 175.55 42.48C175.19 42 174.95 41.4 174.95 40.8V32.88L181.91 39.84ZM181.91 44.52C181.91 44.52 179.87 44.28 180.11 42.84C180.35 41.88 180.83 41.28 181.31 41.04C181.55 40.8 181.91 41.04 181.91 41.28V44.52ZM182.63 7.08L181.91 7.8V9.36C181.91 9.72 181.55 10.08 181.19 10.08C178.43 10.2 176.39 8.4 175.55 7.56001C175.43 7.44 175.55 7.08 175.67 7.08H182.63ZM181.91 17.64L175.79 23.76L174.95 22.92V8.88C174.95 8.52 175.43 8.4 175.67 8.64C177.11 9.96 179.51 10.56 180.95 10.8C181.43 10.92 181.91 11.52 181.91 12.12V17.64ZM188.99 62.64V37.2L180.83 28.68L188.99 20.28V9.48C188.99 7.8 189.11 6.12 189.35 4.44C189.47 2.64 189.83 1.2 190.31 0H166.67C167.03 1.2 167.39 2.64 167.63 4.44C167.75 6.12 167.87 7.8 167.87 9.48V62.64C167.87 64.32 167.75 66 167.63 67.68C167.39 69.48 167.03 70.92 166.67 72H176.27C175.79 70.92 175.55 69.48 175.31 67.68C175.07 66 174.95 64.32 174.95 62.64V47.16C174.95 46.08 175.43 45 176.39 44.28C176.51 44.28 176.51 44.16 176.51 44.16C178.79 42.6 181.91 44.28 181.91 47.04V62.64C181.91 64.32 181.79 66 181.67 67.68C181.43 69.48 181.07 70.92 180.59 72H190.31C189.83 70.92 189.47 69.48 189.35 67.68C189.11 66 188.99 64.32 188.99 62.64Z" fill="white"/>
<path d="M209.039 25.08H208.799H206.399C206.279 25.08 206.279 25.08 206.159 24.96C203.999 24.96 202.319 23.16 202.319 21V10.44C202.319 8.64 205.079 9.6 206.759 11.04C207.719 12 208.319 12.96 208.559 13.8C208.799 14.16 208.919 14.52 208.919 14.88C209.279 15.72 209.639 16.92 209.639 17.28C209.879 17.88 210.359 18.72 210.359 18.72C210.359 18.72 209.759 18 209.639 17.64C209.519 17.28 209.399 16.92 209.399 16.92C209.399 16.92 209.399 17.4 209.399 17.64C209.399 17.88 209.159 16.8 209.039 16.32V24.24L209.879 25.08H209.039ZM203.159 25.08H202.559H202.319H201.479L202.319 24.24V23.88C202.319 23.16 203.039 23.76 203.279 24.36C203.519 24.96 203.159 24.96 203.159 25.08ZM204.839 7.32C205.079 7.2 205.319 7.08 205.559 7.08H209.039H209.879L209.039 7.92V11.4C209.039 13.56 206.399 10.56 204.959 8.52C204.359 7.8 204.599 7.44 204.839 7.32ZM216.119 62.76V40.56C216.119 40.32 215.999 40.2 215.879 39.96C215.759 39.84 215.639 39.6 215.759 39.48C215.159 39.48 214.559 39.36 213.839 39.24C213.719 39.24 213.599 39.24 213.479 39.24C213.239 39.24 213.119 39.24 212.999 39.36C211.679 39.72 210.359 39.96 209.159 40.08C209.999 39.96 210.839 39.84 211.559 39.48C211.919 39.36 212.159 39.24 212.399 39.12C212.999 39 213.719 39.12 214.319 39C214.199 38.88 214.079 38.76 213.839 38.64C213.719 38.52 213.479 38.52 213.239 38.52C213.479 38.4 213.719 38.52 213.839 38.64C214.199 38.64 214.559 38.76 214.919 38.76C215.399 38.76 215.879 38.64 216.119 38.28L216.239 9.48C216.239 7.8 216.359 6.12 216.479 4.44C216.719 2.64 217.079 1.2 217.559 0H198.599C198.599 0.119998 198.599 0.119999 198.599 0.119999C198.479 0.119999 198.359 0.239998 198.359 0.239998C198.359 0.360003 198.239 0.360005 198.239 0.480003C198.239 0.72 198.239 0.960004 198.239 1.2C198.119 0.960004 197.879 0.720001 197.639 0.600002C197.519 0.600002 197.399 0.600002 197.279 0.600002C197.159 0.600002 197.039 0.600002 197.039 0.480003C196.919 0.360005 196.919 0.360003 196.919 0.239998C196.919 0.119999 196.919 0.119998 196.799 0H193.919C194.279 1.2 194.639 2.64 194.879 4.44C194.999 6.12 195.119 7.8 195.119 9.48L195.239 62.64C195.239 64.32 195.119 66 194.879 67.68C194.639 69.48 194.399 70.92 193.919 72H203.399C203.039 70.92 202.679 69.48 202.439 67.68C202.319 66.84 202.319 65.88 202.319 65.04V32.88L201.479 32.04H202.559H208.799H209.879L209.039 32.88V64.8C209.039 65.76 209.039 66.72 208.919 67.68C208.679 69.48 208.319 70.92 207.839 72H217.439C216.959 71.04 216.719 69.48 216.479 67.8C216.239 66.12 216.119 64.44 216.119 62.76Z" fill="white"/>
<path d="M237.127 19.44H236.407H236.047H232.207L229.447 16.68V7.8L228.727 7.08H229.447H229.807H236.047H237.127L236.407 7.8V18.72L237.127 19.44ZM236.407 65.04H229.807H229.447H228.727L229.447 64.32V50.76C229.567 47.52 232.567 44.88 235.927 45.48V45.6C236.167 45.6 236.407 45.84 236.407 46.2V64.32L237.127 65.04H236.407ZM229.447 29.88V26.64L236.407 33.6V42.36C236.407 42.84 236.047 43.32 235.567 43.32C233.527 43.56 232.087 41.04 231.007 38.52C229.927 35.76 229.447 32.76 229.447 29.88ZM227.527 33.6C227.527 33.6 227.887 34.44 228.007 34.68C228.247 34.92 228.367 34.92 228.487 35.16C228.607 35.28 228.847 35.28 229.207 35.76C229.327 36 229.687 36.6 229.927 37.08C230.047 37.32 230.167 37.56 230.287 37.68C233.647 44.52 232.207 45.24 230.767 45C230.047 44.76 229.447 44.16 229.447 43.32V37.56C229.207 36.6 229.447 36.24 228.607 35.4C227.527 34.56 227.527 33.6 227.527 33.6ZM243.487 63V30.72L239.287 26.52H243.487V9.12C243.487 7.44 243.607 5.76 243.727 4.2C243.967 2.52 244.327 1.08 244.687 0H222.367H221.167C221.527 1.08 221.887 2.64 222.127 4.2C222.247 5.88 222.367 7.56 222.367 9.24V10.32C222.487 10.56 222.607 10.92 222.847 11.16C222.967 11.52 224.647 12.6 225.247 12.84C225.247 12.84 226.807 13.8 227.167 14.4C226.687 13.8 225.967 13.44 225.247 13.08C224.887 12.96 224.527 12.96 224.167 12.96C224.167 13.2 224.167 13.44 224.287 13.68C224.047 13.56 223.927 13.32 223.807 12.96C223.807 12.72 223.447 12.12 223.447 12.12C223.207 11.88 222.847 11.88 222.727 12.12C222.727 12.24 222.727 12.36 222.607 12.48C222.607 13.08 222.487 13.56 222.367 14.04V62.88C222.367 64.56 222.247 66.24 222.127 67.92C221.887 69.48 221.527 71.04 221.167 72H225.007C225.127 71.76 225.127 71.52 225.367 71.28C225.727 70.92 226.567 71.04 226.807 70.44C227.047 70.44 227.047 70.8 226.927 71.04C226.927 71.16 226.687 71.4 226.807 71.64C226.927 72 227.527 71.76 227.767 72H236.407C236.527 71.88 236.647 71.76 236.647 71.64C237.007 71.04 237.007 70.32 237.247 69.72C237.367 69.48 237.367 69.24 237.487 69C237.607 68.64 237.607 68.4 237.727 68.04C237.847 67.44 237.847 66.72 238.327 66.24C238.207 66.84 237.967 67.08 237.847 67.68C237.847 67.92 237.847 68.52 237.727 68.76C237.727 68.88 237.607 69 237.607 69.12C237.487 69.48 237.367 69.84 237.367 70.2C237.247 70.44 237.247 70.56 237.247 70.8C237.367 71.4 238.207 71.52 238.447 72H244.687C244.327 71.04 243.967 69.6 243.727 67.92C243.607 66.36 243.487 64.68 243.487 63Z" fill="white"/>
<path d="M263.536 25.08H263.296H260.896C260.776 25.08 260.776 25.08 260.656 24.96C258.496 24.96 256.816 23.16 256.816 21V10.44C256.816 8.64 259.576 9.6 261.256 11.04C262.216 12 262.816 12.96 263.056 13.8C263.296 14.16 263.416 14.52 263.416 14.88C263.776 15.72 264.136 16.92 264.136 17.28C264.376 17.88 264.856 18.72 264.856 18.72C264.856 18.72 264.256 18 264.136 17.64C264.016 17.28 263.896 16.92 263.896 16.92C263.896 16.92 263.896 17.4 263.896 17.64C263.896 17.88 263.656 16.8 263.536 16.32V24.24L264.376 25.08H263.536ZM257.656 25.08H257.056H256.816H255.976L256.816 24.24V23.88C256.816 23.16 257.536 23.76 257.776 24.36C258.016 24.96 257.656 24.96 257.656 25.08ZM259.336 7.32C259.576 7.2 259.816 7.08 260.056 7.08H263.536H264.376L263.536 7.92V11.4C263.536 13.56 260.896 10.56 259.456 8.52C258.856 7.8 259.096 7.44 259.336 7.32ZM270.616 62.76V40.56C270.616 40.32 270.496 40.2 270.376 39.96C270.256 39.84 270.136 39.6 270.256 39.48C269.656 39.48 269.056 39.36 268.336 39.24C268.216 39.24 268.096 39.24 267.976 39.24C267.736 39.24 267.616 39.24 267.496 39.36C266.176 39.72 264.856 39.96 263.656 40.08C264.496 39.96 265.336 39.84 266.056 39.48C266.416 39.36 266.656 39.24 266.896 39.12C267.496 39 268.216 39.12 268.816 39C268.696 38.88 268.576 38.76 268.336 38.64C268.216 38.52 267.976 38.52 267.736 38.52C267.976 38.4 268.216 38.52 268.336 38.64C268.696 38.64 269.056 38.76 269.416 38.76C269.896 38.76 270.376 38.64 270.616 38.28L270.736 9.48C270.736 7.8 270.856 6.12 270.976 4.44C271.216 2.64 271.576 1.2 272.056 0H253.096C253.096 0.119998 253.096 0.119999 253.096 0.119999C252.976 0.119999 252.856 0.239998 252.856 0.239998C252.856 0.360003 252.736 0.360005 252.736 0.480003C252.736 0.72 252.736 0.960004 252.736 1.2C252.616 0.960004 252.376 0.720001 252.136 0.600002C252.016 0.600002 251.896 0.600002 251.776 0.600002C251.656 0.600002 251.536 0.600002 251.536 0.480003C251.416 0.360005 251.416 0.360003 251.416 0.239998C251.416 0.119999 251.416 0.119998 251.296 0H248.416C248.776 1.2 249.136 2.64 249.376 4.44C249.496 6.12 249.616 7.8 249.616 9.48L249.736 62.64C249.736 64.32 249.616 66 249.376 67.68C249.136 69.48 248.896 70.92 248.416 72H257.896C257.536 70.92 257.176 69.48 256.936 67.68C256.816 66.84 256.816 65.88 256.816 65.04V32.88L255.976 32.04H257.056H263.296H264.376L263.536 32.88V64.8C263.536 65.76 263.536 66.72 263.416 67.68C263.176 69.48 262.816 70.92 262.336 72H271.936C271.456 71.04 271.216 69.48 270.976 67.8C270.736 66.12 270.616 64.44 270.616 62.76Z" fill="white"/>
<path d="M283.944 64.2V61.92C284.304 61.92 284.904 61.8 285.144 61.32C285.264 61.2 285.504 61.2 285.624 61.32C286.104 62.28 286.824 63.24 287.424 63.84C288.264 64.68 288.144 64.92 287.784 65.04H283.224L283.944 64.2ZM284.064 58.8C284.184 58.56 284.304 58.56 284.424 58.92C284.544 59.16 284.784 59.88 285.264 60.72C285.264 60.72 285.024 61.56 284.304 61.68C284.184 61.68 283.944 61.56 283.944 61.44V59.16C283.944 59.04 283.944 58.92 284.064 58.8ZM276.264 69.6C276.024 70.56 275.784 71.52 275.664 72.12L299.304 72C298.584 70.32 298.104 67.92 297.984 65.04H291.864C288.504 65.04 286.464 62.52 285.264 60.24C284.424 58.32 283.944 56.16 283.944 54V9.24C283.944 7.56 284.064 5.88 284.304 4.2C284.544 2.64 284.784 1.08 285.264 0L275.664 0.119999C276.024 1.08 276.384 2.64 276.624 4.2C276.744 5.88 276.864 7.56 276.864 9.12V62.28C276.864 64.8 276.744 67.2 276.264 69.6Z" fill="white"/>
<path d="M318.152 22.08V29.76C318.152 30.12 318.033 30.36 317.793 30.6C317.433 30.96 316.833 31.08 316.113 29.16C315.153 26.88 315.273 23.88 315.393 22.32C315.393 21.84 315.872 21.48 316.353 21.48H317.793V21.36H318.872L318.152 22.08ZM313.233 26.4C312.633 26.4 312.513 26.28 312.393 26.04C312.393 25.92 312.513 25.8 312.513 25.68C312.633 25.56 312.993 25.32 313.113 25.08C314.073 24.12 314.673 24.48 314.673 25.92C314.673 26.4 314.193 26.4 313.233 26.4ZM311.193 25.56V22.08L310.473 21.36H311.553V21.48H313.712C315.392 21.48 312.753 24.6 311.673 25.68C311.433 25.92 311.193 25.8 311.193 25.56ZM325.233 62.64V9.48C325.233 7.8 325.353 6.12 325.592 4.44C325.712 2.64 326.073 1.2 326.553 0H316.833C317.313 1.2 317.673 2.64 317.913 4.44C318.033 6.12 318.152 7.8 318.152 9.48V13.68L318.872 14.28H310.473L311.193 13.68V9C311.193 7.32 311.313 5.76 311.553 4.08C311.793 2.52 312.033 1.08 312.513 0H302.913C303.272 1.2 303.633 2.64 303.872 4.44C303.992 6.12 304.113 7.8 304.113 9.48V62.64C304.113 64.32 303.992 66 303.872 67.68C303.633 69.48 303.272 70.92 302.913 72H312.513C312.033 70.92 311.672 69.24 311.432 67.44C311.312 66 311.193 64.56 311.193 63.12V32.28V31.08C311.193 28.56 311.552 27.36 312.033 26.52C312.033 26.4 312.153 26.16 312.513 26.4C312.872 26.64 313.953 26.52 314.312 26.52C314.672 26.52 314.793 26.76 314.793 26.88C315.033 28.2 315.512 29.76 316.712 31.56C317.913 33.24 318.152 34.8 318.152 35.4V35.64V62.64C318.152 64.32 318.033 66 317.913 67.68C317.673 69.48 317.313 70.92 316.833 72H326.553C326.073 70.92 325.712 69.48 325.592 67.68C325.353 66 325.233 64.32 325.233 62.64Z" fill="white"/>
<path d="M345.401 7.92V18.72C345.401 19.08 345.041 19.32 344.681 19.2C344.081 19.08 343.121 18.72 341.921 18.24C341.921 18.12 341.801 18.12 341.681 18.12C339.761 17.16 338.441 15.12 338.441 12.84V7.8L337.841 7.08H346.121L345.401 7.92ZM345.401 53.28C344.681 53.52 343.841 53.52 343.841 52.68C343.841 52.08 344.321 51.72 344.801 51.48C345.161 51.36 345.401 51.48 345.401 51.84V53.28ZM338.441 20.04C338.561 19.2 339.161 18.24 341.321 18.72C342.761 19.08 343.961 20.04 344.921 20.88C345.161 21.12 345.401 21.6 345.401 22.08V46.68C345.401 47.88 345.161 49.08 344.561 50.16C343.841 51.36 342.761 52.44 341.441 53.16C341.441 53.16 341.321 53.16 341.201 53.28C339.641 53.88 339.041 52.92 338.681 52.08C338.681 51.96 338.681 51.96 338.561 51.84C338.441 51.48 338.441 51.12 338.441 50.76V20.04ZM337.841 65.04L338.441 64.32V58.2C338.561 57 339.161 55.68 340.121 54.84C340.481 54.48 340.961 54.12 341.441 54C342.881 53.64 344.081 54 344.801 54.36C344.801 54.36 344.801 54.36 344.921 54.48C345.161 54.6 345.401 55.08 345.401 55.44V64.2L346.121 65.04H337.841ZM352.481 62.64V9.48C352.481 7.8 352.601 6.12 352.841 4.44C352.961 2.64 353.321 1.2 353.801 0H330.161C330.521 1.2 330.881 2.64 331.121 4.44C331.241 6.12 331.361 7.8 331.361 9.48V62.64C331.361 64.32 331.241 66 331.121 67.68C330.881 69.48 330.521 70.92 330.161 72H353.801C353.321 70.92 352.961 69.48 352.841 67.68C352.601 66 352.481 64.32 352.481 62.64Z" fill="white"/>
<path d="M364.969 65.04L365.689 64.2V63.6C365.689 60.24 368.809 57.72 372.169 58.32C372.409 58.32 372.649 58.56 372.649 58.92V64.2L373.489 65.04H364.969ZM366.169 49.8C370.009 57.24 368.569 57.96 367.009 57.72C366.289 57.48 365.689 56.88 365.689 56.04V49.92C365.689 49.68 366.049 49.56 366.169 49.8ZM379.729 62.64V20.16H364.969L365.689 19.44V7.68L365.089 7.08H379.729C379.849 4.2 380.329 1.8 381.049 0H357.409C357.769 1.2 358.129 2.64 358.369 4.44C358.489 6.12 358.609 7.8 358.609 9.48V27.24H373.489L372.649 28.08V55.2C372.649 55.68 372.289 56.04 371.809 56.04C369.769 56.28 368.329 53.76 367.249 51.12C366.169 48.36 365.689 45.48 365.689 42.6V36H358.609V62.64C358.609 64.32 358.489 66 358.369 67.68C358.129 69.48 357.769 70.92 357.409 72H381.049C380.569 70.92 380.209 69.48 380.089 67.68C379.849 66 379.729 64.32 379.729 62.64Z" fill="white"/>
</g>
<defs>
<filter id="filter0_d_33_121" x="0" y="0" width="385.049" height="85" filterUnits="userSpaceOnUse" color-interpolation-filters="sRGB">
<feFlood flood-opacity="0" result="BackgroundImageFix"/>
<feColorMatrix in="SourceAlpha" type="matrix" values="0 0 0 0 0 0 0 0 0 0 0 0 0 0 0 0 0 0 127 0" result="hardAlpha"/>
<feOffset dy="4"/>
<feGaussianBlur stdDeviation="2"/>
<feComposite in2="hardAlpha" operator="out"/>
<feColorMatrix type="matrix" values="0 0 0 0 0 0 0 0 0 0 0 0 0 0 0 0 0 0 0.25 0"/>
<feBlend mode="normal" in2="BackgroundImageFix" result="effect1_dropShadow_33_121"/>
<feBlend mode="normal" in="SourceGraphic" in2="effect1_dropShadow_33_121" result="shape"/>
</filter>
</defs>
</svg>
