<svg width="39" height="39" viewBox="0 0 39 39" fill="none" xmlns="http://www.w3.org/2000/svg">
<path d="M5.59735 2.0408e-05C6.19816 -0.00178084 6.79338 0.115672 7.34846 0.345578C7.90355 0.575484 8.40746 0.913259 8.83105 1.33935C9.25464 1.76544 9.58947 2.27137 9.81611 2.8278C10.0427 3.38423 10.1567 3.98009 10.1514 4.58088C10.1373 5.7984 9.64458 6.96147 8.77985 7.81866C7.91511 8.67585 6.74779 9.15831 5.5302 9.16176C4.93052 9.16178 4.33676 9.04303 3.78323 8.81233C3.2297 8.58163 2.72735 8.24355 2.30519 7.81764C1.88303 7.39173 1.54942 6.88641 1.32362 6.33087C1.09782 5.77532 0.984297 5.18054 0.98962 4.58088C1.00022 3.36459 1.48991 2.20152 2.3525 1.34396C3.21509 0.486397 4.38102 0.00351006 5.59735 2.0408e-05Z" fill="white"/>
<path d="M9.4663 12.6143L9.27823 38.0307H1.37924L1.56731 12.6143H9.4663Z" fill="white"/>
<path d="M29.5765 11.9963C37.6366 11.9963 38.98 17.2489 38.98 24.0866L38.8725 38.0307H30.987L31.081 25.6718C31.081 22.7164 31.081 18.955 27.0509 18.955C23.0208 18.955 22.3089 22.1656 22.282 25.4971L22.188 38.071H14.2755L14.4636 12.6411H22.0402V16.1205H22.1611C22.9174 14.8345 24.0036 13.7741 25.3074 13.049C26.6111 12.3239 28.085 11.9604 29.5765 11.9963Z" fill="white"/>
</svg>
