<svg width="161" height="35" viewBox="0 0 161 35" fill="none" xmlns="http://www.w3.org/2000/svg">
<path d="M12.9276 3.44167V0H0.619873V35H4.69899V10.3833H12.9276V6.94167H4.69899V3.44167H12.9276Z" fill="white"/>
<path d="M23.2369 12.1333H19.2281V3.44167H23.2369V12.1333ZM27.3864 0H27.316H15.0787V35H19.2281V15.575H23.2369V35H27.316L27.3864 0Z" fill="white"/>
<path d="M33.6166 31.6167V0H29.5375V35H41.8451V31.6167H33.6166Z" fill="white"/>
<path d="M56.3039 3.44167V0H43.9962V35H56.3039V31.6167H48.0754V28.175H56.3039V24.7333H48.0754V3.44167H56.3039Z" fill="white"/>
<path d="M77.3232 3.44167V0H65.0155V35H77.3232V31.6167H69.0946V3.44167H77.3232Z" fill="white"/>
<path d="M87.6325 31.6167H83.5534V3.44167H87.6325V31.6167ZM79.4743 0V35H91.782V0H79.4743Z" fill="white"/>
<path d="M110.32 0V4.55L106.241 1.16667V0H102.091V3.44167L98.0122 0.0583333V0H93.9331V35H98.0122V4.95833L102.091 8.34167V35H106.241V6.06667L110.32 9.39167V35H114.469V0H110.32Z" fill="white"/>
<path d="M116.565 35H120.644V0H116.565V35Z" fill="white"/>
<path d="M135.158 35V8.51667H131.009V31.6167H126.93V3.44167H135.158V0H122.851V3.44167V35H135.158Z" fill="white"/>
<path d="M145.468 31.6167H141.389V3.44167H145.468V31.6167ZM137.309 0V35H149.617V0H137.309Z" fill="white"/>
<path d="M158.748 23.6358H155.515L154.097 0H160.166L158.748 23.6358ZM153.587 30.4086C153.587 29.2722 153.927 28.4736 154.608 28.0128C155.288 27.5521 156.12 27.3217 157.103 27.3217C158.049 27.3217 158.862 27.5521 159.542 28.0128C160.261 28.4736 160.62 29.2722 160.62 30.4086C160.62 31.5144 160.261 32.313 159.542 32.8045C158.862 33.2959 158.049 33.5417 157.103 33.5417C156.12 33.5417 155.288 33.2959 154.608 32.8045C153.927 32.313 153.587 31.5144 153.587 30.4086Z" fill="white"/>
</svg>
