<svg width="584" height="174" viewBox="0 0 584 174" fill="none" xmlns="http://www.w3.org/2000/svg">
<g filter="url(#filter0_d_40_183)">
<rect y="151" width="288" height="13" fill="#FD9520"/>
<path d="M32.86 57.3199V116.36C32.86 116.9 32.86 117.62 32.5 118.16C32.14 119.42 31.06 121.04 28.72 119.96C28.54 119.96 28.54 119.96 28.36 119.78C26.2 118.7 24.58 117.08 23.5 114.92C22.78 113.48 22.42 111.86 22.42 110.06V57.1399L21.52 56.0599H22.42H32.5H32.86H33.94L32.86 57.3199ZM32.5 128.42L22.42 138.5V123.38C22.42 122.66 22.78 122.12 23.32 121.76C23.32 121.76 23.32 121.76 23.5 121.76C24.58 121.22 26.38 120.5 28.36 121.22C29.08 121.4 29.8 121.76 30.34 122.3C31.78 123.74 32.68 125.54 32.86 127.34C32.86 127.88 32.68 128.24 32.5 128.42ZM21.88 117.08L20.44 116.36L18.1 116.18L17.2 116.72L17.92 116H19.54L18.1 115.64L17.2 113.48L16.12 112.76L17.38 113.3C17.38 113.3 18.1 114.38 18.1 114.56C18.1 114.92 18.28 115.28 18.28 115.28C18.28 115.28 19.18 115.64 20.62 116.18C21.88 116.54 23.32 117.26 23.5 117.44C23.68 117.44 23.68 117.44 23.68 117.44C24.22 117.8 24.76 118.34 24.76 119.06C24.94 120.14 24.04 120.32 23.14 120.14C22.78 120.14 22.42 119.78 22.42 119.42V118.52C22.42 117.44 21.88 117.08 21.88 117.08ZM42.4 45.4399C42.4 45.6199 42.4 45.6199 42.4 45.6199C42.4 45.6199 42.4 45.6199 42.4 45.7999C42.22 45.7999 42.04 45.9799 41.86 45.9799C41.68 46.1599 41.5 46.3399 41.68 46.6999C41.68 46.6999 41.86 46.8799 41.68 46.8799C41.68 47.0599 41.68 47.0599 41.68 47.0599C41.5 47.0599 41.32 47.0599 41.14 46.8799C40.96 46.8799 40.96 46.8799 40.96 46.8799C40.78 46.8799 40.78 47.0599 40.6 47.0599C40.6 47.2399 40.24 47.2399 40.06 47.0599C39.7 47.0599 39.7 46.6999 39.52 46.5199C39.52 46.3399 39.52 46.1599 39.34 45.9799C39.34 45.7999 39.16 45.6199 38.98 45.4399H23.68C23.68 45.6199 23.68 45.6199 23.5 45.6199C23.32 45.7999 23.14 45.7999 22.96 45.7999C22.78 45.7999 22.78 45.6199 22.6 45.6199C22.24 45.7999 21.88 45.9799 21.7 45.9799C21.16 46.1599 20.8 45.7999 20.62 45.4399H20.44C20.26 45.7999 20.08 46.1599 19.9 46.3399C19.9 46.5199 19.72 46.5199 19.72 46.5199C19.72 46.6999 19.72 46.6999 19.72 46.8799C20.08 47.5999 20.26 48.3199 20.8 48.8599C21.34 49.5799 22.24 49.9399 22.78 50.4799C21.88 50.2999 20.8 50.8399 20.26 50.2999C19.9 50.1199 19.72 49.9399 19.72 49.5799C19.36 49.0399 19 48.6799 18.64 48.1399C18.28 47.7799 18.1 47.4199 17.74 47.2399C17.56 47.2399 17.56 47.0599 17.38 47.0599C17.2 46.8799 17.38 46.5199 17.2 46.3399C17.2 45.9799 16.84 45.9799 16.48 45.7999C16.48 45.7999 16.3 45.6199 16.3 45.4399L10 45.6199C10.54 47.2399 11.08 49.3999 11.44 52.0999C11.62 54.6199 11.8 57.1399 11.8 59.6599V139.4C11.8 141.92 11.62 144.44 11.44 146.96C11.08 149.66 10.54 151.82 10 153.62H22.42V153.44L43.48 132.38V59.6599C43.48 57.1399 43.66 54.6199 44.02 52.0999C44.2 49.3999 44.74 47.2399 45.46 45.4399H42.4Z" fill="#F8E1C8"/>
<path d="M73.7327 57.3199V73.5199C73.7327 74.0599 73.1927 74.4199 72.6527 74.2399C71.7527 74.0599 70.3127 73.5199 68.5127 72.7999C68.5127 72.6199 68.3327 72.6199 68.1527 72.6199C65.2727 71.1799 63.2927 68.1199 63.2927 64.6999V57.1399L62.3927 56.0599H74.8127L73.7327 57.3199ZM73.7327 125.36C72.6527 125.72 71.3927 125.72 71.3927 124.46C71.3927 123.56 72.1127 123.02 72.8327 122.66C73.3727 122.48 73.7327 122.66 73.7327 123.2V125.36ZM63.2927 75.4999C63.4727 74.2399 64.3727 72.7999 67.6127 73.5199C69.7727 74.0599 71.5727 75.4999 73.0127 76.7599C73.3727 77.1199 73.7327 77.8399 73.7327 78.5599V115.46C73.7327 117.26 73.3727 119.06 72.4727 120.68C71.3927 122.48 69.7727 124.1 67.7927 125.18C67.7927 125.18 67.6127 125.18 67.4327 125.36C65.0927 126.26 64.1927 124.82 63.6527 123.56C63.6527 123.38 63.6527 123.38 63.4727 123.2C63.2927 122.66 63.2927 122.12 63.2927 121.58V75.4999ZM62.3927 143L63.2927 141.92V132.74C63.4727 130.94 64.3727 128.96 65.8127 127.7C66.3527 127.16 67.0727 126.62 67.7927 126.44C69.9527 125.9 71.7527 126.44 72.8327 126.98C72.8327 126.98 72.8327 126.98 73.0127 127.16C73.3727 127.34 73.7327 128.06 73.7327 128.6V141.74L74.8127 143H62.3927ZM84.3527 139.4V59.6599C84.3527 57.1399 84.5327 54.6199 84.8927 52.0999C85.0727 49.3999 85.6127 47.2399 86.3327 45.4399H50.8727C51.4127 47.2399 51.9527 49.3999 52.3127 52.0999C52.4927 54.6199 52.6727 57.1399 52.6727 59.6599V139.4C52.6727 141.92 52.4927 144.44 52.3127 146.96C51.9527 149.66 51.4127 151.82 50.8727 153.44H86.3327C85.6127 151.82 85.0727 149.66 84.8927 146.96C84.5327 144.44 84.3527 141.92 84.3527 139.4Z" fill="#F8E1C8"/>
<path d="M103.085 142.82L104.165 141.92V123.56C104.165 122.3 105.605 121.76 106.505 122.48C110.465 126.08 114.605 141.92 114.605 141.92L115.685 142.82H103.085ZM112.085 125.18C112.085 125.18 112.085 125.18 112.265 125.18C113.705 125.54 114.605 126.8 114.605 128.24V134.18C114.605 137.24 111.905 130.58 111.365 128.96C110.645 127.52 109.745 124.64 112.085 125.18ZM125.225 139.4V59.6599C125.225 57.1399 125.405 54.6199 125.765 52.0999C125.945 49.3999 126.485 47.2399 127.205 45.4399H112.625C113.345 47.2399 113.885 49.3999 114.245 51.9199C114.425 54.4399 114.605 57.1399 114.605 59.6599V123.2C114.605 123.92 113.885 124.64 113.165 124.46C109.385 124.1 107.045 122.3 105.785 120.5C104.705 118.7 104.165 116.9 104.165 114.74V59.2999C104.165 56.7799 104.345 54.2599 104.705 51.7399C105.065 49.3999 105.425 47.0599 106.145 45.4399H91.7453C92.2853 47.2399 92.8253 49.3999 93.1853 52.0999C93.3653 54.6199 93.5453 57.1399 93.5453 59.6599V139.4C93.5453 141.92 93.3653 144.44 93.1853 146.96C92.8253 149.66 92.2853 151.82 91.7453 153.44H127.205C126.485 151.82 125.945 149.66 125.765 146.96C125.405 144.44 125.225 141.92 125.225 139.4Z" fill="#F8E1C8"/>
<path d="M143.958 142.82L145.038 141.74V88.6399C145.038 85.5799 149.718 88.6399 152.778 90.9799C154.578 92.4199 155.478 94.3999 155.478 96.5599V141.92L156.558 142.82H143.958ZM166.098 139.4V71.8999H155.478V84.6799V85.2199C155.478 86.4799 154.938 88.8199 152.058 88.8199C149.178 88.8199 147.558 86.6599 146.478 84.6799C145.578 82.6999 145.038 80.7199 145.038 78.5599V57.3199L143.958 56.0599H145.578H166.098C166.278 51.7399 166.998 48.1399 168.078 45.4399H132.618C133.158 47.2399 133.698 49.3999 134.058 52.0999C134.238 54.6199 134.418 57.1399 134.418 59.6599V139.4C134.418 141.92 134.238 144.44 134.058 146.96C133.698 149.66 133.158 151.82 132.618 153.44H168.078C167.358 151.82 166.818 149.66 166.638 146.96C166.278 144.44 166.098 141.92 166.098 139.4Z" fill="#F8E1C8"/>
<path d="M185.911 141.74V138.32C186.451 138.32 187.351 138.14 187.711 137.42C187.891 137.24 188.251 137.24 188.431 137.42C189.151 138.86 190.231 140.3 191.131 141.2C192.391 142.46 192.211 142.82 191.671 143H184.831L185.911 141.74ZM186.091 133.64C186.271 133.28 186.451 133.28 186.631 133.82C186.811 134.18 187.171 135.26 187.891 136.52C187.891 136.52 187.531 137.78 186.451 137.96C186.271 137.96 185.911 137.78 185.911 137.6V134.18C185.911 134 185.911 133.82 186.091 133.64ZM174.391 149.84C174.031 151.28 173.671 152.72 173.491 153.62L208.951 153.44C207.871 150.92 207.151 147.32 206.971 143H197.791C192.751 143 189.691 139.22 187.891 135.8C186.631 132.92 185.911 129.68 185.911 126.44V59.2999C185.911 56.7799 186.091 54.2599 186.451 51.7399C186.811 49.3999 187.171 47.0599 187.891 45.4399L173.491 45.6199C174.031 47.0599 174.571 49.3999 174.931 51.7399C175.111 54.2599 175.291 56.7799 175.291 59.1199V138.86C175.291 142.64 175.111 146.24 174.391 149.84Z" fill="#F8E1C8"/>
<path d="M237.043 83.0599H236.683H233.083C232.903 83.0599 232.903 83.0599 232.723 82.8799C229.483 82.8799 226.963 80.1799 226.963 76.9399V61.0999C226.963 58.3999 231.103 59.8399 233.623 61.9999C235.063 63.4399 235.963 64.8799 236.323 66.1399C236.683 66.6799 236.863 67.2199 236.863 67.7599C237.403 69.0199 237.943 70.8199 237.943 71.3599C238.303 72.2599 239.023 73.5199 239.023 73.5199C239.023 73.5199 238.123 72.4399 237.943 71.8999C237.763 71.3599 237.583 70.8199 237.583 70.8199C237.583 70.8199 237.583 71.5399 237.583 71.8999C237.583 72.2599 237.223 70.6399 237.043 69.9199V81.7999L238.303 83.0599H237.043ZM228.223 83.0599H227.323H226.963H225.703L226.963 81.7999V81.2599C226.963 80.1799 228.043 81.0799 228.403 81.9799C228.763 82.8799 228.223 82.8799 228.223 83.0599ZM230.743 56.4199C231.103 56.2399 231.463 56.0599 231.823 56.0599H237.043H238.303L237.043 57.3199V62.5399C237.043 65.7799 233.083 61.2799 230.923 58.2199C230.023 57.1399 230.383 56.5999 230.743 56.4199ZM247.663 139.58V106.28C247.663 105.92 247.483 105.74 247.303 105.38C247.123 105.2 246.943 104.84 247.123 104.66C246.223 104.66 245.323 104.48 244.243 104.3C244.063 104.3 243.883 104.3 243.703 104.3C243.343 104.3 243.163 104.3 242.983 104.48C241.003 105.02 239.023 105.38 237.223 105.56C238.483 105.38 239.743 105.2 240.823 104.66C241.363 104.48 241.723 104.3 242.083 104.12C242.983 103.94 244.063 104.12 244.963 103.94C244.783 103.76 244.603 103.58 244.243 103.4C244.063 103.22 243.703 103.22 243.343 103.22C243.703 103.04 244.063 103.22 244.243 103.4C244.783 103.4 245.323 103.58 245.863 103.58C246.583 103.58 247.303 103.4 247.663 102.86L247.843 59.6599C247.843 57.1399 248.023 54.6199 248.203 52.0999C248.563 49.3999 249.103 47.2399 249.823 45.4399H221.383C221.383 45.6199 221.383 45.6199 221.383 45.6199C221.203 45.6199 221.023 45.7999 221.023 45.7999C221.023 45.9799 220.843 45.9799 220.843 46.1599C220.843 46.5199 220.843 46.8799 220.843 47.2399C220.663 46.8799 220.303 46.5199 219.943 46.3399C219.763 46.3399 219.583 46.3399 219.403 46.3399C219.223 46.3399 219.043 46.3399 219.043 46.1599C218.863 45.9799 218.863 45.9799 218.863 45.7999C218.863 45.6199 218.863 45.6199 218.683 45.4399H214.363C214.903 47.2399 215.443 49.3999 215.803 52.0999C215.983 54.6199 216.163 57.1399 216.163 59.6599L216.343 139.4C216.343 141.92 216.163 144.44 215.803 146.96C215.443 149.66 215.083 151.82 214.363 153.44H228.583C228.043 151.82 227.503 149.66 227.143 146.96C226.963 145.7 226.963 144.26 226.963 143V94.7599L225.703 93.4999H227.323H236.683H238.303L237.043 94.7599V142.64C237.043 144.08 237.043 145.52 236.863 146.96C236.503 149.66 235.963 151.82 235.243 153.44H249.643C248.923 152 248.563 149.66 248.203 147.14C247.843 144.62 247.663 142.1 247.663 139.58Z" fill="#F8E1C8"/>
<path d="M266.576 143L267.656 141.74V140.84C267.656 135.8 272.336 132.02 277.376 132.92C277.736 132.92 278.096 133.28 278.096 133.82V141.74L279.356 143H266.576ZM268.376 120.14C274.136 131.3 271.976 132.38 269.636 132.02C268.556 131.66 267.656 130.76 267.656 129.5V120.32C267.656 119.96 268.196 119.78 268.376 120.14ZM288.716 139.4V75.6799H266.576L267.656 74.5999V56.9599L266.756 56.0599H288.716C288.896 51.7399 289.616 48.1399 290.696 45.4399H255.236C255.776 47.2399 256.316 49.3999 256.676 52.0999C256.856 54.6199 257.036 57.1399 257.036 59.6599V86.2999H279.356L278.096 87.5599V128.24C278.096 128.96 277.556 129.5 276.836 129.5C273.776 129.86 271.616 126.08 269.996 122.12C268.376 117.98 267.656 113.66 267.656 109.34V99.4399H257.036V139.4C257.036 141.92 256.856 144.44 256.676 146.96C256.316 149.66 255.776 151.82 255.236 153.44H290.696C289.976 151.82 289.436 149.66 289.256 146.96C288.896 144.44 288.716 141.92 288.716 139.4Z" fill="#F8E1C8"/>
<path d="M327.257 56.0599H327.797C327.797 56.0599 333.917 56.4199 332.657 62.1799C331.217 68.1199 327.077 74.0599 327.077 69.5599V57.4999L325.817 56.0599H327.257ZM333.017 56.2399C333.197 56.2399 333.377 56.2399 333.557 56.2399C333.917 56.2399 334.637 56.2399 335.717 56.2399C337.697 56.2399 334.637 59.8399 333.197 57.8599C331.937 56.4199 332.657 56.2399 333.017 56.2399ZM327.257 143H325.817L327.077 141.56V88.2799C326.717 88.0999 326.537 88.0999 326.177 87.9199C325.997 87.9199 325.997 87.9199 325.817 87.9199C325.457 87.9199 325.457 88.4599 325.277 88.6399C324.917 89.1799 324.377 89.3599 324.017 89.1799C324.557 89.1799 325.097 88.6399 325.637 87.5599C325.457 87.3799 325.457 87.1999 325.277 87.1999C325.817 87.0199 326.357 86.8399 326.357 86.2999C326.357 86.1199 326.357 85.9399 326.357 85.7599C326.537 85.3999 326.717 85.2199 327.077 85.2199V80.5399C327.077 76.7599 328.157 72.9799 329.957 69.7399C330.137 69.7399 330.137 69.5599 330.317 69.3799C332.837 65.2399 334.097 56.0599 340.397 56.0599H348.137C348.317 51.7399 349.037 48.1399 350.117 45.4399L327.077 45.6199V45.4399H314.657C315.197 47.2399 315.737 49.3999 316.097 52.0999C316.277 54.6199 316.457 57.1399 316.457 59.6599V139.4C316.457 141.92 316.277 144.44 316.097 146.96C315.737 149.66 315.197 151.82 314.657 153.44H324.557C324.557 153.44 324.737 153.26 324.917 153.08C324.917 153.08 324.917 152.9 325.097 152.9C325.457 152.72 325.637 152.54 325.637 152.18C325.637 152 325.637 152 325.817 151.82C325.817 151.64 325.997 151.64 326.177 151.64C326.177 151.64 326.177 151.64 326.357 151.64V151.46C326.717 151.46 326.897 151.28 327.077 151.1C327.077 150.92 327.077 150.74 327.077 150.38C327.077 150.02 326.897 149.66 326.897 149.12C326.897 148.94 326.717 148.58 326.897 148.22C327.077 148.22 327.077 148.22 327.077 148.22C327.257 147.86 327.437 147.5 327.977 147.5C328.157 147.5 328.157 147.68 328.157 147.68C327.437 147.86 327.257 148.22 327.257 148.58C327.077 148.94 327.077 149.3 327.257 149.66C327.257 149.48 327.437 149.48 327.617 149.48C327.797 149.48 327.797 149.66 327.797 149.66C327.437 150.2 327.437 150.74 327.257 151.28C327.077 151.46 327.077 151.46 326.897 151.64C326.717 151.82 326.537 151.82 326.357 151.82C326.357 151.82 326.177 151.82 326.177 152L326.357 152.18C326.357 152.18 326.177 152.72 325.997 153.08C325.997 153.26 325.997 153.44 326.177 153.44H350.117C349.037 150.92 348.317 147.32 348.137 143H327.257Z" fill="#F8E1C8"/>
<path d="M378.39 57.3199V73.5199C378.39 74.0599 377.85 74.4199 377.31 74.2399C376.41 74.0599 374.97 73.5199 373.17 72.7999C373.17 72.6199 372.99 72.6199 372.81 72.6199C369.93 71.1799 367.95 68.1199 367.95 64.6999V57.1399L367.05 56.0599H379.47L378.39 57.3199ZM378.39 125.36C377.31 125.72 376.05 125.72 376.05 124.46C376.05 123.56 376.77 123.02 377.49 122.66C378.03 122.48 378.39 122.66 378.39 123.2V125.36ZM367.95 75.4999C368.13 74.2399 369.03 72.7999 372.27 73.5199C374.43 74.0599 376.23 75.4999 377.67 76.7599C378.03 77.1199 378.39 77.8399 378.39 78.5599V115.46C378.39 117.26 378.03 119.06 377.13 120.68C376.05 122.48 374.43 124.1 372.45 125.18C372.45 125.18 372.27 125.18 372.09 125.36C369.75 126.26 368.85 124.82 368.31 123.56C368.31 123.38 368.31 123.38 368.13 123.2C367.95 122.66 367.95 122.12 367.95 121.58V75.4999ZM367.05 143L367.95 141.92V132.74C368.13 130.94 369.03 128.96 370.47 127.7C371.01 127.16 371.73 126.62 372.45 126.44C374.61 125.9 376.41 126.44 377.49 126.98C377.49 126.98 377.49 126.98 377.67 127.16C378.03 127.34 378.39 128.06 378.39 128.6V141.74L379.47 143H367.05ZM389.01 139.4V59.6599C389.01 57.1399 389.19 54.6199 389.55 52.0999C389.73 49.3999 390.27 47.2399 390.99 45.4399H355.53C356.07 47.2399 356.61 49.3999 356.97 52.0999C357.15 54.6199 357.33 57.1399 357.33 59.6599V139.4C357.33 141.92 357.15 144.44 356.97 146.96C356.61 149.66 356.07 151.82 355.53 153.44H390.99C390.27 151.82 389.73 149.66 389.55 146.96C389.19 144.44 389.01 141.92 389.01 139.4Z" fill="#F8E1C8"/>
<path d="M419.262 105.2C419.262 105.38 418.182 107.36 414.222 109.7C411.702 110.96 410.442 110.06 409.722 109.16C409.182 108.44 408.822 107.54 408.822 106.64V94.7599L419.262 105.2ZM419.262 112.22C419.262 112.22 416.202 111.86 416.562 109.7C416.922 108.26 417.642 107.36 418.362 107C418.722 106.64 419.262 107 419.262 107.36V112.22ZM420.342 56.0599L419.262 57.1399V59.4799C419.262 60.0199 418.722 60.5599 418.182 60.5599C414.042 60.7399 410.982 58.0399 409.722 56.7799C409.542 56.5999 409.722 56.0599 409.902 56.0599H420.342ZM419.262 71.8999L410.082 81.0799L408.822 79.8199V58.7599C408.822 58.2199 409.542 58.0399 409.902 58.3999C412.062 60.3799 415.662 61.2799 417.822 61.6399C418.542 61.8199 419.262 62.7199 419.262 63.6199V71.8999ZM429.882 139.4V101.24L417.642 88.4599L429.882 75.8599V59.6599C429.882 57.1399 430.062 54.6199 430.422 52.0999C430.602 49.3999 431.142 47.2399 431.862 45.4399H396.402C396.942 47.2399 397.482 49.3999 397.842 52.0999C398.022 54.6199 398.202 57.1399 398.202 59.6599V139.4C398.202 141.92 398.022 144.44 397.842 146.96C397.482 149.66 396.942 151.82 396.402 153.44H410.802C410.082 151.82 409.722 149.66 409.362 146.96C409.002 144.44 408.822 141.92 408.822 139.4V116.18C408.822 114.56 409.542 112.94 410.982 111.86C411.162 111.86 411.162 111.68 411.162 111.68C414.582 109.34 419.262 111.86 419.262 116V139.4C419.262 141.92 419.082 144.44 418.902 146.96C418.542 149.66 418.002 151.82 417.282 153.44H431.862C431.142 151.82 430.602 149.66 430.422 146.96C430.062 144.44 429.882 141.92 429.882 139.4Z" fill="#F8E1C8"/>
<path d="M460.135 105.2C460.135 105.38 459.055 107.36 455.095 109.7C452.575 110.96 451.315 110.06 450.595 109.16C450.055 108.44 449.695 107.54 449.695 106.64V94.7599L460.135 105.2ZM460.135 112.22C460.135 112.22 457.075 111.86 457.435 109.7C457.795 108.26 458.515 107.36 459.235 107C459.595 106.64 460.135 107 460.135 107.36V112.22ZM461.215 56.0599L460.135 57.1399V59.4799C460.135 60.0199 459.595 60.5599 459.055 60.5599C454.915 60.7399 451.855 58.0399 450.595 56.7799C450.415 56.5999 450.595 56.0599 450.775 56.0599H461.215ZM460.135 71.8999L450.955 81.0799L449.695 79.8199V58.7599C449.695 58.2199 450.415 58.0399 450.775 58.3999C452.935 60.3799 456.535 61.2799 458.695 61.6399C459.415 61.8199 460.135 62.7199 460.135 63.6199V71.8999ZM470.755 139.4V101.24L458.515 88.4599L470.755 75.8599V59.6599C470.755 57.1399 470.935 54.6199 471.295 52.0999C471.475 49.3999 472.015 47.2399 472.735 45.4399H437.275C437.815 47.2399 438.355 49.3999 438.715 52.0999C438.895 54.6199 439.075 57.1399 439.075 59.6599V139.4C439.075 141.92 438.895 144.44 438.715 146.96C438.355 149.66 437.815 151.82 437.275 153.44H451.675C450.955 151.82 450.595 149.66 450.235 146.96C449.875 144.44 449.695 141.92 449.695 139.4V116.18C449.695 114.56 450.415 112.94 451.855 111.86C452.035 111.86 452.035 111.68 452.035 111.68C455.455 109.34 460.135 111.86 460.135 116V139.4C460.135 141.92 459.955 144.44 459.775 146.96C459.415 149.66 458.875 151.82 458.155 153.44H472.735C472.015 151.82 471.475 149.66 471.295 146.96C470.935 144.44 470.755 141.92 470.755 139.4Z" fill="#F8E1C8"/>
<path d="M491.108 141.02C490.928 141.2 490.748 141.38 490.568 141.56L489.308 143C489.308 143 488.048 143.36 488.048 143.72C488.048 143.9 486.428 144.62 486.428 144.62C486.428 144.62 487.508 144.08 487.688 143.54C487.868 143 488.768 142.64 488.768 142.64L489.128 142.1L488.768 141.56C488.768 141.56 489.308 141.56 489.308 142.28L490.028 141.56L490.208 141.38C490.208 141.38 490.028 140.66 490.388 140.48C490.568 140.12 490.568 138.86 490.568 138.86V133.64L489.308 132.38H490.568H491.108C492.548 132.56 494.168 133.28 493.268 136.7C492.908 138.32 492.008 139.76 491.108 141.02ZM511.628 143L493.628 142.82C492.908 142.82 492.548 142.28 492.728 141.56C492.908 140.66 493.448 139.4 494.168 137.6C494.348 137.6 494.348 137.42 494.348 137.24C495.788 134.18 498.848 132.38 502.268 132.38H511.628V121.76H489.308L490.568 120.5V57.3199L489.308 56.0599H490.928H511.628C511.808 51.7399 512.528 48.1399 513.608 45.4399H478.148C478.688 47.2399 479.228 49.3999 479.588 52.0999C479.768 54.6199 479.948 57.1399 479.948 59.6599V139.4C479.948 141.92 479.768 144.44 479.588 146.96C479.228 149.66 478.688 151.82 478.148 153.44H489.488C489.848 153.08 490.208 152.72 490.388 152.36C490.388 152 490.388 151.64 490.388 151.28C490.568 150.92 490.928 150.74 490.928 150.38C490.928 149.84 490.388 149.3 490.028 149.3C489.848 149.12 489.848 148.94 490.028 148.94C490.568 148.76 491.288 149.66 491.648 149.66C491.648 149.48 491.648 149.48 491.648 149.3C491.648 149.12 491.468 148.94 491.648 148.76V148.58V148.4C492.008 148.04 492.548 147.86 492.908 147.86C493.088 147.86 493.088 147.86 493.268 147.68C493.448 147.68 493.448 148.04 493.268 148.04C492.908 148.04 492.728 148.22 492.548 148.22C492.188 148.4 492.188 148.76 492.008 149.48C492.008 149.66 492.188 149.66 492.188 149.84C492.188 149.84 492.008 150.02 492.008 150.2C491.828 150.38 491.468 150.74 491.468 151.1C491.468 151.28 491.468 151.64 491.468 152C491.648 152.18 491.828 152.18 491.828 152.18C492.008 152.36 492.548 152.54 492.548 152.54C492.728 152.54 492.728 152.9 492.548 152.9C492.188 152.72 492.008 152.72 491.648 152.9C491.648 153.08 491.648 153.26 491.828 153.08C492.008 153.08 492.368 153.08 492.548 153.26C492.728 153.26 492.908 153.44 493.088 153.44H511.628H513.608C512.528 150.92 511.808 147.32 511.628 143Z" fill="#F8E1C8"/>
<path d="M531.98 52.0999C532.34 49.3999 532.7 47.2399 533.42 45.4399H519.02C519.56 47.2399 520.1 49.3999 520.46 52.0999C520.64 54.6199 520.82 57.1399 520.82 59.6599V139.4C520.82 141.92 520.64 144.44 520.46 146.96C520.1 149.66 519.56 151.82 519.02 153.44H533.42C532.7 151.82 532.34 149.66 531.98 146.96C531.62 144.44 531.44 141.92 531.44 139.4V59.6599C531.44 57.1399 531.62 54.6199 531.98 52.0999Z" fill="#F8E1C8"/>
<path d="M561.479 83.0599H561.119H557.519C557.339 83.0599 557.339 83.0599 557.159 82.8799C553.919 82.8799 551.399 80.1799 551.399 76.9399V61.0999C551.399 58.3999 555.539 59.8399 558.059 61.9999C559.499 63.4399 560.399 64.8799 560.759 66.1399C561.119 66.6799 561.299 67.2199 561.299 67.7599C561.839 69.0199 562.379 70.8199 562.379 71.3599C562.739 72.2599 563.459 73.5199 563.459 73.5199C563.459 73.5199 562.559 72.4399 562.379 71.8999C562.199 71.3599 562.019 70.8199 562.019 70.8199C562.019 70.8199 562.019 71.5399 562.019 71.8999C562.019 72.2599 561.659 70.6399 561.479 69.9199V81.7999L562.739 83.0599H561.479ZM552.659 83.0599H551.759H551.399H550.139L551.399 81.7999V81.2599C551.399 80.1799 552.479 81.0799 552.839 81.9799C553.199 82.8799 552.659 82.8799 552.659 83.0599ZM555.179 56.4199C555.539 56.2399 555.899 56.0599 556.259 56.0599H561.479H562.739L561.479 57.3199V62.5399C561.479 65.7799 557.519 61.2799 555.359 58.2199C554.459 57.1399 554.819 56.5999 555.179 56.4199ZM572.099 139.58V106.28C572.099 105.92 571.919 105.74 571.739 105.38C571.559 105.2 571.379 104.84 571.559 104.66C570.659 104.66 569.759 104.48 568.679 104.3C568.499 104.3 568.319 104.3 568.139 104.3C567.779 104.3 567.599 104.3 567.419 104.48C565.439 105.02 563.459 105.38 561.659 105.56C562.919 105.38 564.179 105.2 565.259 104.66C565.799 104.48 566.159 104.3 566.519 104.12C567.419 103.94 568.499 104.12 569.399 103.94C569.219 103.76 569.039 103.58 568.679 103.4C568.499 103.22 568.139 103.22 567.779 103.22C568.139 103.04 568.499 103.22 568.679 103.4C569.219 103.4 569.759 103.58 570.299 103.58C571.019 103.58 571.739 103.4 572.099 102.86L572.279 59.6599C572.279 57.1399 572.459 54.6199 572.639 52.0999C572.999 49.3999 573.539 47.2399 574.259 45.4399H545.819C545.819 45.6199 545.819 45.6199 545.819 45.6199C545.639 45.6199 545.459 45.7999 545.459 45.7999C545.459 45.9799 545.279 45.9799 545.279 46.1599C545.279 46.5199 545.279 46.8799 545.279 47.2399C545.099 46.8799 544.739 46.5199 544.379 46.3399C544.199 46.3399 544.019 46.3399 543.839 46.3399C543.659 46.3399 543.479 46.3399 543.479 46.1599C543.299 45.9799 543.299 45.9799 543.299 45.7999C543.299 45.6199 543.299 45.6199 543.119 45.4399H538.799C539.339 47.2399 539.879 49.3999 540.239 52.0999C540.419 54.6199 540.599 57.1399 540.599 59.6599L540.779 139.4C540.779 141.92 540.599 144.44 540.239 146.96C539.879 149.66 539.519 151.82 538.799 153.44H553.019C552.479 151.82 551.939 149.66 551.579 146.96C551.399 145.7 551.399 144.26 551.399 143V94.7599L550.139 93.4999H551.759H561.119H562.739L561.479 94.7599V142.64C561.479 144.08 561.479 145.52 561.299 146.96C560.939 149.66 560.399 151.82 559.679 153.44H574.079C573.359 152 572.999 149.66 572.639 147.14C572.279 144.62 572.099 142.1 572.099 139.58Z" fill="#F8E1C8"/>
<path d="M10 25.7107V7.88317H10.4474C10.6741 7.88317 10.7935 8.00371 10.8054 8.24479L10.9128 11.2462C11.6048 10.1372 12.4162 9.25128 13.3469 8.58832C14.2895 7.92536 15.3275 7.59388 16.4611 7.59388C17.8094 7.59388 18.8773 8.00371 19.6648 8.82337C20.4523 9.64302 20.9653 10.7942 21.204 12.2768C21.3829 11.4812 21.6574 10.7942 22.0273 10.2156C22.4091 9.62494 22.8506 9.13676 23.3517 8.75104C23.8528 8.35327 24.4017 8.06398 24.9983 7.88317C25.5949 7.69031 26.2094 7.59388 26.8417 7.59388C27.6889 7.59388 28.4525 7.74455 29.1326 8.0459C29.8247 8.33519 30.4093 8.7631 30.8866 9.32962C31.3639 9.89615 31.7278 10.5953 31.9784 11.427C32.2409 12.2587 32.3721 13.217 32.3721 14.3018V25.7107H31.4236V14.3018C31.4236 12.3732 31.0119 10.9026 30.1886 9.89012C29.3772 8.86555 28.2139 8.35327 26.6986 8.35327C26.0304 8.35327 25.3861 8.47983 24.7656 8.73296C24.1571 8.97404 23.6142 9.3477 23.1369 9.85396C22.6716 10.3482 22.2957 10.9689 22.0094 11.7163C21.723 12.4516 21.5798 13.3134 21.5798 14.3018V25.7107H20.6312V14.3018C20.6312 12.4094 20.2613 10.9448 19.5216 9.90821C18.7818 8.87158 17.696 8.35327 16.2642 8.35327C15.1903 8.35327 14.206 8.69077 13.3111 9.36578C12.4162 10.0408 11.6287 10.9689 10.9486 12.1502V25.7107H10Z" fill="#F8E1C8"/>
<path d="M50.4631 15.0793C50.4631 14.0065 50.308 13.0542 49.9977 12.2225C49.6994 11.3788 49.2818 10.6676 48.7449 10.089C48.2199 9.51043 47.5935 9.07047 46.8656 8.76912C46.1378 8.46778 45.3503 8.31711 44.5031 8.31711C43.5009 8.31711 42.6 8.47983 41.8006 8.80528C41.0131 9.11868 40.333 9.5707 39.7602 10.1613C39.1875 10.752 38.7222 11.4631 38.3642 12.2949C38.0182 13.1266 37.7915 14.0547 37.6841 15.0793H50.4631ZM50.8568 23.5229C50.6182 23.8243 50.2841 24.1196 49.8545 24.4089C49.425 24.6982 48.9298 24.9573 48.369 25.1864C47.8202 25.4033 47.2176 25.5781 46.5614 25.7107C45.9171 25.8554 45.2548 25.9277 44.5747 25.9277C43.3696 25.9277 42.2779 25.7167 41.2994 25.2949C40.333 24.8609 39.5037 24.2401 38.8117 23.4325C38.1316 22.6249 37.6066 21.6365 37.2367 20.4673C36.8668 19.286 36.6818 17.942 36.6818 16.4353C36.6818 15.1335 36.8549 13.9462 37.2009 12.8734C37.5588 11.7886 38.0719 10.8544 38.7401 10.0709C39.4083 9.28744 40.2256 8.67872 41.1921 8.24479C42.1585 7.81085 43.2563 7.59388 44.4852 7.59388C45.4398 7.59388 46.3287 7.76263 47.152 8.10014C47.9872 8.43764 48.7151 8.93788 49.3355 9.60083C49.956 10.2517 50.4392 11.0593 50.7852 12.0236C51.1432 12.9879 51.3222 14.0909 51.3222 15.3324C51.3222 15.5855 51.2148 15.7121 51 15.7121H37.6304C37.6185 15.8326 37.6125 15.9532 37.6125 16.0737C37.6125 16.1822 37.6125 16.3027 37.6125 16.4353C37.6125 17.8577 37.7796 19.1113 38.1137 20.1961C38.4477 21.2809 38.9191 22.191 39.5276 22.9263C40.1361 23.6616 40.8699 24.2221 41.729 24.6078C42.6 24.9815 43.5665 25.1683 44.6284 25.1683C45.571 25.1683 46.3884 25.0658 47.0804 24.8609C47.7725 24.644 48.3511 24.4089 48.8165 24.1558C49.2818 23.9026 49.6398 23.6736 49.8903 23.4687C50.1528 23.2517 50.3199 23.1433 50.3915 23.1433C50.4869 23.1433 50.5645 23.1794 50.6242 23.2517L50.8568 23.5229Z" fill="#F8E1C8"/>
<path d="M68.8289 7.88317V25.7107H68.3994C68.1846 25.7107 68.0593 25.5902 68.0235 25.3491L67.934 22.2392C67.0988 23.3843 66.1144 24.3004 64.9809 24.9875C63.8474 25.6625 62.6005 26 61.2403 26C60.2619 26 59.4028 25.8493 58.663 25.548C57.9352 25.2346 57.3267 24.7946 56.8375 24.2281C56.3602 23.6495 55.9963 22.9444 55.7457 22.1127C55.5071 21.2809 55.3877 20.3408 55.3877 19.2921V7.88317H56.3363V19.2921C56.3363 20.2202 56.4377 21.0519 56.6406 21.7872C56.8434 22.5225 57.1536 23.1493 57.5713 23.6676C58.0008 24.1739 58.5318 24.5656 59.1642 24.8428C59.8085 25.108 60.5602 25.2406 61.4193 25.2406C62.696 25.2406 63.8772 24.9031 64.963 24.2281C66.0607 23.541 67.0391 22.5948 67.8982 21.3894V7.88317H68.8289Z" fill="#F8E1C8"/>
<path d="M84.5688 11.3366C85.3921 10.1915 86.3705 9.28141 87.5041 8.6064C88.6495 7.93139 89.8964 7.59388 91.2447 7.59388C92.2231 7.59388 93.0762 7.75058 93.804 8.06398C94.5438 8.36532 95.1523 8.80528 95.6296 9.38387C96.1188 9.95039 96.4827 10.6495 96.7214 11.4812C96.9719 12.3129 97.0972 13.2531 97.0972 14.3018V25.7107H96.1487V14.3018C96.1487 13.3737 96.0472 12.542 95.8444 11.8067C95.6415 11.0714 95.3254 10.4506 94.8958 9.94437C94.4782 9.42605 93.9532 9.03431 93.3208 8.76912C92.6884 8.49189 91.9427 8.35327 91.0836 8.35327C89.795 8.35327 88.6018 8.6968 87.5041 9.38387C86.4183 10.0589 85.4518 10.9991 84.6046 12.2045V25.7107H83.656V7.88317H84.1035C84.3302 7.88317 84.4495 8.00371 84.4614 8.24479L84.5688 11.3366Z" fill="#F8E1C8"/>
<path d="M109.228 7.59388C110.481 7.59388 111.591 7.81687 112.557 8.26286C113.536 8.6968 114.359 9.31757 115.027 10.1252C115.695 10.9207 116.202 11.885 116.548 13.0181C116.894 14.1511 117.067 15.4108 117.067 16.7969C117.067 18.1831 116.894 19.4427 116.548 20.5758C116.202 21.6968 115.695 22.6551 115.027 23.4506C114.359 24.2462 113.536 24.8609 112.557 25.2949C111.591 25.7167 110.481 25.9277 109.228 25.9277C107.975 25.9277 106.86 25.7167 105.881 25.2949C104.915 24.8609 104.098 24.2462 103.429 23.4506C102.761 22.6551 102.254 21.6968 101.908 20.5758C101.562 19.4427 101.389 18.1831 101.389 16.7969C101.389 15.4108 101.562 14.1511 101.908 13.0181C102.254 11.885 102.761 10.9207 103.429 10.1252C104.098 9.31757 104.915 8.6968 105.881 8.26286C106.86 7.81687 107.975 7.59388 109.228 7.59388ZM109.228 25.1683C110.374 25.1683 111.376 24.9694 112.235 24.5716C113.094 24.1739 113.81 23.6073 114.383 22.872C114.967 22.1368 115.403 21.2568 115.689 20.2323C115.976 19.2077 116.119 18.0626 116.119 16.7969C116.119 15.5313 115.976 14.3802 115.689 13.3435C115.403 12.3069 114.967 11.421 114.383 10.6857C113.81 9.93834 113.094 9.36579 112.235 8.96801C111.376 8.55818 110.374 8.35327 109.228 8.35327C108.083 8.35327 107.08 8.55818 106.221 8.96801C105.362 9.36579 104.64 9.93834 104.056 10.6857C103.483 11.421 103.054 12.3069 102.767 13.3435C102.481 14.3802 102.338 15.5313 102.338 16.7969C102.338 18.0626 102.481 19.2077 102.767 20.2323C103.054 21.2568 103.483 22.1368 104.056 22.872C104.64 23.6073 105.362 24.1739 106.221 24.5716C107.08 24.9694 108.083 25.1683 109.228 25.1683Z" fill="#F8E1C8"/>
<path d="M121.585 25.7107V7.88317H122.033C122.259 7.88317 122.379 8.00371 122.391 8.24479L122.498 11.2462C123.19 10.1372 124.001 9.25128 124.932 8.58832C125.875 7.92536 126.913 7.59388 128.046 7.59388C129.395 7.59388 130.462 8.00371 131.25 8.82337C132.037 9.64302 132.551 10.7942 132.789 12.2768C132.968 11.4812 133.243 10.7942 133.612 10.2156C133.994 9.62494 134.436 9.13676 134.937 8.75104C135.438 8.35327 135.987 8.06398 136.583 7.88317C137.18 7.69031 137.795 7.59388 138.427 7.59388C139.274 7.59388 140.038 7.74455 140.718 8.0459C141.41 8.33519 141.995 8.7631 142.472 9.32962C142.949 9.89615 143.313 10.5953 143.564 11.427C143.826 12.2587 143.957 13.217 143.957 14.3018V25.7107H143.009V14.3018C143.009 12.3732 142.597 10.9026 141.774 9.89012C140.962 8.86555 139.799 8.35327 138.284 8.35327C137.616 8.35327 136.971 8.47983 136.351 8.73296C135.742 8.97404 135.199 9.3477 134.722 9.85396C134.257 10.3482 133.881 10.9689 133.595 11.7163C133.308 12.4516 133.165 13.3134 133.165 14.3018V25.7107H132.216V14.3018C132.216 12.4094 131.847 10.9448 131.107 9.90821C130.367 8.87158 129.281 8.35327 127.849 8.35327C126.776 8.35327 125.791 8.69077 124.896 9.36578C124.001 10.0408 123.214 10.9689 122.534 12.1502V25.7107H121.585Z" fill="#F8E1C8"/>
<path d="M162.048 15.0793C162.048 14.0065 161.893 13.0542 161.583 12.2225C161.285 11.3788 160.867 10.6676 160.33 10.089C159.805 9.51043 159.179 9.07047 158.451 8.76912C157.723 8.46778 156.935 8.31711 156.088 8.31711C155.086 8.31711 154.185 8.47983 153.386 8.80528C152.598 9.11868 151.918 9.5707 151.345 10.1613C150.773 10.752 150.307 11.4631 149.949 12.2949C149.603 13.1266 149.377 14.0547 149.269 15.0793H162.048ZM162.442 23.5229C162.203 23.8243 161.869 24.1196 161.44 24.4089C161.01 24.6982 160.515 24.9573 159.954 25.1864C159.405 25.4033 158.803 25.5781 158.147 25.7107C157.502 25.8554 156.84 25.9277 156.16 25.9277C154.955 25.9277 153.863 25.7167 152.885 25.2949C151.918 24.8609 151.089 24.2401 150.397 23.4325C149.717 22.6249 149.192 21.6365 148.822 20.4673C148.452 19.286 148.267 17.942 148.267 16.4353C148.267 15.1335 148.44 13.9462 148.786 12.8734C149.144 11.7886 149.657 10.8544 150.325 10.0709C150.993 9.28744 151.811 8.67872 152.777 8.24479C153.744 7.81085 154.841 7.59388 156.07 7.59388C157.025 7.59388 157.914 7.76263 158.737 8.10014C159.572 8.43764 160.3 8.93788 160.921 9.60083C161.541 10.2517 162.024 11.0593 162.37 12.0236C162.728 12.9879 162.907 14.0909 162.907 15.3324C162.907 15.5855 162.8 15.7121 162.585 15.7121H149.216C149.204 15.8326 149.198 15.9532 149.198 16.0737C149.198 16.1822 149.198 16.3027 149.198 16.4353C149.198 17.8577 149.365 19.1113 149.699 20.1961C150.033 21.2809 150.504 22.191 151.113 22.9263C151.721 23.6616 152.455 24.2221 153.314 24.6078C154.185 24.9815 155.152 25.1683 156.214 25.1683C157.156 25.1683 157.974 25.0658 158.666 24.8609C159.358 24.644 159.936 24.4089 160.402 24.1558C160.867 23.9026 161.225 23.6736 161.476 23.4687C161.738 23.2517 161.905 23.1433 161.977 23.1433C162.072 23.1433 162.15 23.1794 162.209 23.2517L162.442 23.5229Z" fill="#F8E1C8"/>
<path d="M189.141 15.0793C189.141 14.0065 188.986 13.0542 188.676 12.2225C188.377 11.3788 187.96 10.6676 187.423 10.089C186.898 9.51043 186.271 9.07047 185.543 8.76912C184.816 8.46778 184.028 8.31711 183.181 8.31711C182.179 8.31711 181.278 8.47983 180.478 8.80528C179.691 9.11868 179.011 9.5707 178.438 10.1613C177.865 10.752 177.4 11.4631 177.042 12.2949C176.696 13.1266 176.469 14.0547 176.362 15.0793H189.141ZM189.535 23.5229C189.296 23.8243 188.962 24.1196 188.532 24.4089C188.103 24.6982 187.608 24.9573 187.047 25.1864C186.498 25.4033 185.895 25.5781 185.239 25.7107C184.595 25.8554 183.933 25.9277 183.253 25.9277C182.047 25.9277 180.956 25.7167 179.977 25.2949C179.011 24.8609 178.182 24.2401 177.49 23.4325C176.809 22.6249 176.284 21.6365 175.915 20.4673C175.545 19.286 175.36 17.942 175.36 16.4353C175.36 15.1335 175.533 13.9462 175.879 12.8734C176.237 11.7886 176.75 10.8544 177.418 10.0709C178.086 9.28744 178.903 8.67872 179.87 8.24479C180.836 7.81085 181.934 7.59388 183.163 7.59388C184.118 7.59388 185.007 7.76263 185.83 8.10014C186.665 8.43764 187.393 8.93788 188.013 9.60083C188.634 10.2517 189.117 11.0593 189.463 12.0236C189.821 12.9879 190 14.0909 190 15.3324C190 15.5855 189.893 15.7121 189.678 15.7121H176.308C176.296 15.8326 176.29 15.9532 176.29 16.0737C176.29 16.1822 176.29 16.3027 176.29 16.4353C176.29 17.8577 176.457 19.1113 176.791 20.1961C177.126 21.2809 177.597 22.191 178.205 22.9263C178.814 23.6616 179.548 24.2221 180.407 24.6078C181.278 24.9815 182.244 25.1683 183.306 25.1683C184.249 25.1683 185.066 25.0658 185.758 24.8609C186.45 24.644 187.029 24.4089 187.494 24.1558C187.96 23.9026 188.318 23.6736 188.568 23.4687C188.831 23.2517 188.998 23.1433 189.069 23.1433C189.165 23.1433 189.242 23.1794 189.302 23.2517L189.535 23.5229ZM186.564 0L182.841 4.53825C182.734 4.68289 182.59 4.75522 182.411 4.75522H181.839L184.738 0.470098C184.857 0.289291 184.971 0.168754 185.078 0.108485C185.186 0.0361616 185.359 0 185.597 0H186.564Z" fill="#F8E1C8"/>
</g>
<defs>
<filter id="filter0_d_40_183" x="0" y="0" width="583.259" height="174" filterUnits="userSpaceOnUse" color-interpolation-filters="sRGB">
<feFlood flood-opacity="0" result="BackgroundImageFix"/>
<feColorMatrix in="SourceAlpha" type="matrix" values="0 0 0 0 0 0 0 0 0 0 0 0 0 0 0 0 0 0 127 0" result="hardAlpha"/>
<feOffset dx="5" dy="6"/>
<feGaussianBlur stdDeviation="2"/>
<feComposite in2="hardAlpha" operator="out"/>
<feColorMatrix type="matrix" values="0 0 0 0 0 0 0 0 0 0 0 0 0 0 0 0 0 0 1 0"/>
<feBlend mode="normal" in2="BackgroundImageFix" result="effect1_dropShadow_40_183"/>
<feBlend mode="normal" in="SourceGraphic" in2="effect1_dropShadow_40_183" result="shape"/>
</filter>
</defs>
</svg>
