<svg width="36" height="36" viewBox="0 0 36 36" fill="none" xmlns="http://www.w3.org/2000/svg">
<path d="M27.6678 6.23914C27.9509 6.2391 28.2311 6.2954 28.4922 6.40477C28.7533 6.51414 28.99 6.67439 29.1886 6.87616C29.3871 7.07794 29.5435 7.31722 29.6486 7.58005C29.7538 7.84288 29.8055 8.12401 29.8009 8.40705C29.7918 8.97904 29.5581 9.52451 29.1504 9.92576C28.7426 10.327 28.1935 10.5519 27.6214 10.5518C27.0495 10.5518 26.501 10.3246 26.0966 9.9202C25.6923 9.51581 25.4651 8.96735 25.4651 8.39546C25.4651 7.82357 25.6923 7.2751 26.0966 6.87071C26.501 6.46632 27.0495 6.23914 27.6214 6.23914H27.6678Z" fill="white"/>
<path d="M35.7598 9.00981C36.0265 11.8385 36.2004 25.2402 35.3657 28.3239C34.9591 30.1985 33.9757 31.8986 32.5535 33.1857C31.1312 34.4728 29.3416 35.2821 27.4359 35.5001C24.1462 35.8238 20.8406 35.9593 17.5354 35.9058C14.1992 36.0016 10.8608 35.8232 7.55374 35.3726C5.67867 35.0008 3.97049 34.0423 2.67626 32.6355C1.38203 31.2287 0.568867 29.4467 0.35442 27.5472C-0.132491 24.5098 -0.178854 10.4358 0.69063 7.37518C1.1293 5.55573 2.11419 3.91408 3.51302 2.67067C4.91186 1.42726 6.65766 0.641636 8.51599 0.419305C11.5067 0.0897617 14.5156 -0.0457732 17.5238 0.0135474C20.8742 0.0135474 24.2594 0.106293 26.2882 0.222224C28.7397 0.245221 31.0951 1.1791 32.8963 2.84227C34.5869 4.46886 35.6082 6.66871 35.7598 9.00981ZM32.2819 26.956C32.7654 21.0867 32.839 15.1908 32.5022 9.31123C32.4383 7.87118 31.8606 6.50167 30.8737 5.451C29.8868 4.40033 28.5562 3.73805 27.1229 3.58423C24.1401 3.31095 21.1448 3.19872 18.1499 3.24802C14.5676 3.24802 11.0085 3.34077 9.44342 3.51467C8.00605 3.60179 6.64472 4.19005 5.59623 5.17711C4.54774 6.16417 3.87848 7.48756 3.70485 8.91706C3.21267 14.9494 3.17002 21.01 3.57731 27.0487C3.69508 28.2525 4.18649 29.3894 4.98272 30.3C5.77894 31.2105 6.84008 31.8492 8.01746 32.1265C11.2146 32.5869 14.4461 32.7654 17.6745 32.6598C21.4423 32.6598 25.1405 32.5438 26.5317 32.3931C27.986 32.3225 29.3679 31.7367 30.4299 30.7405C31.4919 29.7444 32.1648 28.4029 32.3282 26.956" fill="white"/>
<path d="M18.0919 8.74316C19.3033 8.74302 20.5028 8.98385 21.6203 9.45162C22.7378 9.91939 23.7511 10.6048 24.6013 11.4679C25.4514 12.3309 26.1214 13.3545 26.5722 14.479C27.023 15.6034 27.2457 16.8063 27.2273 18.0177C27.2089 20.4653 26.2237 22.8065 24.4863 24.5308C22.749 26.2551 20.4005 27.2227 17.9528 27.2226C16.7408 27.2243 15.5407 26.9846 14.4225 26.5173C13.3043 26.0501 12.2903 25.3648 11.4399 24.5014C10.5894 23.638 9.91951 22.6138 9.46924 21.4886C9.01897 20.3635 8.79736 19.1599 8.81738 17.9481C8.83573 15.5004 9.82097 13.1593 11.5583 11.435C13.2956 9.71068 15.6441 8.7431 18.0919 8.74316ZM17.9644 23.907C19.5373 23.9013 21.0458 23.281 22.1678 22.1785C23.2897 21.076 23.9363 19.5787 23.9696 18.0061C23.985 17.2253 23.8452 16.4493 23.5584 15.723C23.2717 14.9967 22.8436 14.3345 22.299 13.7748C21.7545 13.2152 21.1043 12.7692 20.386 12.4626C19.6678 12.1561 18.8959 11.9952 18.1151 11.9892H18.0571C16.4802 11.9951 14.9684 12.6186 13.8457 13.726C12.7231 14.8334 12.0791 16.3366 12.0519 17.9133C12.0365 18.6941 12.1763 19.4701 12.463 20.1964C12.7498 20.9227 13.1778 21.5849 13.7224 22.1446C14.267 22.7042 14.9172 23.1502 15.6354 23.4567C16.3536 23.7633 17.1256 23.9242 17.9064 23.9302H17.9644" fill="white"/>
</svg>
