<svg width="380" height="142" viewBox="0 0 380 142" fill="none" xmlns="http://www.w3.org/2000/svg">
<path d="M17.1 126.645C17.35 126.645 17.56 126.735 17.73 126.915L19.515 128.82C18.635 129.94 17.54 130.79 16.23 131.37C14.93 131.95 13.38 132.24 11.58 132.24C9.95 132.24 8.485 131.965 7.185 131.415C5.885 130.855 4.78 130.08 3.87 129.09C2.96 128.1 2.26 126.925 1.77 125.565C1.28 124.205 1.035 122.72 1.035 121.11C1.035 120.03 1.15 119.005 1.38 118.035C1.62 117.055 1.965 116.155 2.415 115.335C2.865 114.515 3.405 113.775 4.035 113.115C4.675 112.455 5.395 111.895 6.195 111.435C6.995 110.965 7.865 110.61 8.805 110.37C9.755 110.12 10.765 109.995 11.835 109.995C12.635 109.995 13.39 110.065 14.1 110.205C14.82 110.345 15.49 110.54 16.11 110.79C16.73 111.04 17.3 111.345 17.82 111.705C18.35 112.055 18.825 112.44 19.245 112.86L17.73 114.93C17.64 115.06 17.525 115.175 17.385 115.275C17.245 115.375 17.055 115.425 16.815 115.425C16.575 115.425 16.33 115.34 16.08 115.17C15.84 115 15.54 114.81 15.18 114.6C14.83 114.39 14.385 114.2 13.845 114.03C13.315 113.86 12.64 113.775 11.82 113.775C10.91 113.775 10.075 113.94 9.315 114.27C8.555 114.6 7.9 115.08 7.35 115.71C6.81 116.33 6.39 117.095 6.09 118.005C5.79 118.915 5.64 119.95 5.64 121.11C5.64 122.28 5.8 123.325 6.12 124.245C6.45 125.155 6.895 125.925 7.455 126.555C8.025 127.185 8.685 127.665 9.435 127.995C10.195 128.315 11.005 128.475 11.865 128.475C12.375 128.475 12.835 128.45 13.245 128.4C13.665 128.35 14.05 128.265 14.4 128.145C14.76 128.025 15.095 127.87 15.405 127.68C15.725 127.49 16.045 127.25 16.365 126.96C16.475 126.87 16.59 126.795 16.71 126.735C16.83 126.675 16.96 126.645 17.1 126.645ZM25.0554 109.635V132H20.9154V109.635H25.0554ZM32.1626 116.535V132H28.0226V116.535H32.1626ZM32.6576 112.14C32.6576 112.49 32.5876 112.815 32.4476 113.115C32.3076 113.415 32.1176 113.68 31.8776 113.91C31.6476 114.14 31.3726 114.32 31.0526 114.45C30.7426 114.58 30.4076 114.645 30.0476 114.645C29.7076 114.645 29.3826 114.58 29.0726 114.45C28.7726 114.32 28.5076 114.14 28.2776 113.91C28.0476 113.68 27.8626 113.415 27.7226 113.115C27.5926 112.815 27.5276 112.49 27.5276 112.14C27.5276 111.79 27.5926 111.465 27.7226 111.165C27.8626 110.855 28.0476 110.585 28.2776 110.355C28.5076 110.125 28.7726 109.945 29.0726 109.815C29.3826 109.685 29.7076 109.62 30.0476 109.62C30.4076 109.62 30.7426 109.685 31.0526 109.815C31.3726 109.945 31.6476 110.125 31.8776 110.355C32.1176 110.585 32.3076 110.855 32.4476 111.165C32.5876 111.465 32.6576 111.79 32.6576 112.14ZM44.6505 120.555C44.2605 120.105 43.8355 119.79 43.3755 119.61C42.9255 119.43 42.4455 119.34 41.9355 119.34C41.4355 119.34 40.9805 119.435 40.5705 119.625C40.1605 119.815 39.8055 120.115 39.5055 120.525C39.2155 120.925 38.9905 121.44 38.8305 122.07C38.6705 122.7 38.5905 123.45 38.5905 124.32C38.5905 125.18 38.6555 125.91 38.7855 126.51C38.9155 127.11 39.1005 127.595 39.3405 127.965C39.5905 128.335 39.8905 128.605 40.2405 128.775C40.5905 128.935 40.9805 129.015 41.4105 129.015C42.1405 129.015 42.7505 128.87 43.2405 128.58C43.7405 128.29 44.2105 127.88 44.6505 127.35V120.555ZM48.7905 116.535V136.995H44.6505V130.17C44.0505 130.79 43.3755 131.29 42.6255 131.67C41.8755 132.04 40.9955 132.225 39.9855 132.225C39.1555 132.225 38.3955 132.05 37.7055 131.7C37.0155 131.35 36.4155 130.84 35.9055 130.17C35.4055 129.49 35.0155 128.66 34.7355 127.68C34.4555 126.7 34.3155 125.58 34.3155 124.32C34.3155 123.17 34.4705 122.1 34.7805 121.11C35.1005 120.12 35.5505 119.265 36.1305 118.545C36.7105 117.825 37.4105 117.26 38.2305 116.85C39.0505 116.44 39.9605 116.235 40.9605 116.235C41.4305 116.235 41.8605 116.28 42.2505 116.37C42.6405 116.45 42.9955 116.565 43.3155 116.715C43.6455 116.865 43.9455 117.05 44.2155 117.27C44.4955 117.49 44.7655 117.735 45.0255 118.005L45.2205 117.255C45.3705 116.775 45.7105 116.535 46.2405 116.535H48.7905ZM65.1799 116.535V132H62.6299C62.0999 132 61.7599 131.76 61.6099 131.28L61.3399 130.2C61.0299 130.5 60.7099 130.775 60.3799 131.025C60.0499 131.275 59.6949 131.49 59.3149 131.67C58.9449 131.85 58.5399 131.99 58.0999 132.09C57.6699 132.19 57.1999 132.24 56.6899 132.24C55.8499 132.24 55.0999 132.095 54.4399 131.805C53.7899 131.515 53.2449 131.11 52.8049 130.59C52.3649 130.07 52.0299 129.45 51.7999 128.73C51.5699 128.01 51.4549 127.22 51.4549 126.36V116.535H55.5949V126.36C55.5949 127.22 55.7899 127.89 56.1799 128.37C56.5799 128.84 57.1699 129.075 57.9499 129.075C58.5299 129.075 59.0749 128.95 59.5849 128.7C60.0949 128.44 60.5799 128.09 61.0399 127.65V116.535H65.1799ZM77.8071 122.445C77.8071 122.015 77.7471 121.605 77.6271 121.215C77.5171 120.825 77.3371 120.48 77.0871 120.18C76.8371 119.88 76.5221 119.645 76.1421 119.475C75.7621 119.295 75.3071 119.205 74.7771 119.205C73.7871 119.205 73.0121 119.485 72.4521 120.045C71.8921 120.605 71.5271 121.405 71.3571 122.445H77.8071ZM71.2971 124.905C71.4271 126.355 71.8371 127.415 72.5271 128.085C73.2271 128.755 74.1371 129.09 75.2571 129.09C75.8271 129.09 76.3171 129.025 76.7271 128.895C77.1471 128.755 77.5121 128.605 77.8221 128.445C78.1421 128.275 78.4271 128.125 78.6771 127.995C78.9371 127.855 79.1921 127.785 79.4421 127.785C79.7621 127.785 80.0121 127.905 80.1921 128.145L81.3921 129.645C80.9521 130.155 80.4671 130.58 79.9371 130.92C79.4071 131.25 78.8571 131.515 78.2871 131.715C77.7171 131.905 77.1421 132.035 76.5621 132.105C75.9821 132.185 75.4221 132.225 74.8821 132.225C73.8021 132.225 72.7921 132.05 71.8521 131.7C70.9221 131.34 70.1071 130.815 69.4071 130.125C68.7171 129.425 68.1721 128.56 67.7721 127.53C67.3721 126.5 67.1721 125.305 67.1721 123.945C67.1721 122.895 67.3421 121.905 67.6821 120.975C68.0321 120.045 68.5321 119.235 69.1821 118.545C69.8321 117.855 70.6221 117.31 71.5521 116.91C72.4821 116.5 73.5321 116.295 74.7021 116.295C75.6921 116.295 76.6021 116.455 77.4321 116.775C78.2721 117.085 78.9921 117.54 79.5921 118.14C80.2021 118.74 80.6721 119.48 81.0021 120.36C81.3421 121.23 81.5121 122.225 81.5121 123.345C81.5121 123.655 81.4971 123.91 81.4671 124.11C81.4371 124.31 81.3871 124.47 81.3171 124.59C81.2471 124.71 81.1521 124.795 81.0321 124.845C80.9121 124.885 80.7571 124.905 80.5671 124.905H71.2971ZM98.0852 125.535C97.0752 125.585 96.2352 125.675 95.5652 125.805C94.8952 125.925 94.3602 126.085 93.9602 126.285C93.5702 126.485 93.2902 126.715 93.1202 126.975C92.9602 127.225 92.8802 127.5 92.8802 127.8C92.8802 128.4 93.0452 128.825 93.3752 129.075C93.7152 129.325 94.1852 129.45 94.7852 129.45C95.4752 129.45 96.0702 129.33 96.5702 129.09C97.0802 128.84 97.5852 128.455 98.0852 127.935V125.535ZM89.6552 118.68C90.5652 117.86 91.5702 117.25 92.6702 116.85C93.7702 116.44 94.9602 116.235 96.2402 116.235C97.1602 116.235 97.9802 116.385 98.7002 116.685C99.4302 116.985 100.045 117.405 100.545 117.945C101.055 118.475 101.445 119.11 101.715 119.85C101.985 120.59 102.12 121.4 102.12 122.28V132H100.23C99.8402 132 99.5402 131.945 99.3302 131.835C99.1302 131.725 98.9652 131.495 98.8352 131.145L98.5052 130.155C98.1152 130.495 97.7352 130.795 97.3652 131.055C97.0052 131.315 96.6302 131.535 96.2402 131.715C95.8502 131.885 95.4302 132.015 94.9802 132.105C94.5402 132.195 94.0452 132.24 93.4952 132.24C92.8152 132.24 92.1952 132.15 91.6352 131.97C91.0752 131.79 90.5902 131.525 90.1802 131.175C89.7802 130.815 89.4702 130.37 89.2502 129.84C89.0302 129.31 88.9202 128.7 88.9202 128.01C88.9202 127.44 89.0652 126.87 89.3552 126.3C89.6452 125.73 90.1402 125.215 90.8402 124.755C91.5502 124.285 92.4902 123.9 93.6602 123.6C94.8402 123.29 96.3152 123.115 98.0852 123.075V122.28C98.0852 121.31 97.8802 120.6 97.4702 120.15C97.0602 119.69 96.4702 119.46 95.7002 119.46C95.1302 119.46 94.6552 119.53 94.2752 119.67C93.8952 119.8 93.5602 119.945 93.2702 120.105C92.9902 120.255 92.7252 120.4 92.4752 120.54C92.2252 120.67 91.9352 120.735 91.6052 120.735C91.3152 120.735 91.0702 120.665 90.8702 120.525C90.6802 120.375 90.5202 120.2 90.3902 120L89.6552 118.68ZM108.892 127.92C109.282 128.37 109.702 128.685 110.152 128.865C110.612 129.045 111.087 129.135 111.577 129.135C112.087 129.135 112.547 129.045 112.957 128.865C113.377 128.675 113.737 128.38 114.037 127.98C114.337 127.57 114.567 127.04 114.727 126.39C114.887 125.74 114.967 124.955 114.967 124.035C114.967 123.215 114.902 122.52 114.772 121.95C114.642 121.37 114.447 120.895 114.187 120.525C113.937 120.155 113.627 119.885 113.257 119.715C112.887 119.545 112.457 119.46 111.967 119.46C111.317 119.46 110.752 119.605 110.272 119.895C109.802 120.175 109.342 120.59 108.892 121.14V127.92ZM108.892 118.32C109.502 117.71 110.177 117.22 110.917 116.85C111.657 116.48 112.487 116.295 113.407 116.295C114.297 116.295 115.097 116.475 115.807 116.835C116.527 117.185 117.137 117.69 117.637 118.35C118.147 119.01 118.537 119.81 118.807 120.75C119.087 121.68 119.227 122.725 119.227 123.885C119.227 125.135 119.067 126.275 118.747 127.305C118.437 128.325 117.992 129.2 117.412 129.93C116.832 130.66 116.137 131.225 115.327 131.625C114.527 132.025 113.632 132.225 112.642 132.225C112.162 132.225 111.732 132.175 111.352 132.075C110.972 131.985 110.622 131.855 110.302 131.685C109.982 131.515 109.687 131.315 109.417 131.085C109.147 130.845 108.892 130.58 108.652 130.29L108.487 131.22C108.417 131.51 108.302 131.715 108.142 131.835C107.982 131.945 107.767 132 107.497 132H104.752V109.635H108.892V118.32ZM129.375 125.535C128.365 125.585 127.525 125.675 126.855 125.805C126.185 125.925 125.65 126.085 125.25 126.285C124.86 126.485 124.58 126.715 124.41 126.975C124.25 127.225 124.17 127.5 124.17 127.8C124.17 128.4 124.335 128.825 124.665 129.075C125.005 129.325 125.475 129.45 126.075 129.45C126.765 129.45 127.36 129.33 127.86 129.09C128.37 128.84 128.875 128.455 129.375 127.935V125.535ZM120.945 118.68C121.855 117.86 122.86 117.25 123.96 116.85C125.06 116.44 126.25 116.235 127.53 116.235C128.45 116.235 129.27 116.385 129.99 116.685C130.72 116.985 131.335 117.405 131.835 117.945C132.345 118.475 132.735 119.11 133.005 119.85C133.275 120.59 133.41 121.4 133.41 122.28V132H131.52C131.13 132 130.83 131.945 130.62 131.835C130.42 131.725 130.255 131.495 130.125 131.145L129.795 130.155C129.405 130.495 129.025 130.795 128.655 131.055C128.295 131.315 127.92 131.535 127.53 131.715C127.14 131.885 126.72 132.015 126.27 132.105C125.83 132.195 125.335 132.24 124.785 132.24C124.105 132.24 123.485 132.15 122.925 131.97C122.365 131.79 121.88 131.525 121.47 131.175C121.07 130.815 120.76 130.37 120.54 129.84C120.32 129.31 120.21 128.7 120.21 128.01C120.21 127.44 120.355 126.87 120.645 126.3C120.935 125.73 121.43 125.215 122.13 124.755C122.84 124.285 123.78 123.9 124.95 123.6C126.13 123.29 127.605 123.115 129.375 123.075V122.28C129.375 121.31 129.17 120.6 128.76 120.15C128.35 119.69 127.76 119.46 126.99 119.46C126.42 119.46 125.945 119.53 125.565 119.67C125.185 119.8 124.85 119.945 124.56 120.105C124.28 120.255 124.015 120.4 123.765 120.54C123.515 120.67 123.225 120.735 122.895 120.735C122.605 120.735 122.36 120.665 122.16 120.525C121.97 120.375 121.81 120.2 121.68 120L120.945 118.68ZM140.302 116.535V132H136.162V116.535H140.302ZM140.797 112.14C140.797 112.49 140.727 112.815 140.587 113.115C140.447 113.415 140.257 113.68 140.017 113.91C139.787 114.14 139.512 114.32 139.192 114.45C138.882 114.58 138.547 114.645 138.187 114.645C137.847 114.645 137.522 114.58 137.212 114.45C136.912 114.32 136.647 114.14 136.417 113.91C136.187 113.68 136.002 113.415 135.862 113.115C135.732 112.815 135.667 112.49 135.667 112.14C135.667 111.79 135.732 111.465 135.862 111.165C136.002 110.855 136.187 110.585 136.417 110.355C136.647 110.125 136.912 109.945 137.212 109.815C137.522 109.685 137.847 109.62 138.187 109.62C138.547 109.62 138.882 109.685 139.192 109.815C139.512 109.945 139.787 110.125 140.017 110.355C140.257 110.585 140.447 110.855 140.587 111.165C140.727 111.465 140.797 111.79 140.797 112.14ZM157.5 132H153.525C153.225 132 152.98 131.925 152.79 131.775C152.61 131.625 152.465 131.45 152.355 131.25L149.31 126.165C149.22 126.505 149.09 126.805 148.92 127.065L146.31 131.25C146.19 131.44 146.04 131.615 145.86 131.775C145.69 131.925 145.47 132 145.2 132H141.51L146.76 124.02L141.72 116.535H145.695C145.995 116.535 146.215 116.575 146.355 116.655C146.495 116.735 146.62 116.865 146.73 117.045L149.76 121.95C149.81 121.78 149.875 121.61 149.955 121.44C150.035 121.26 150.13 121.085 150.24 120.915L152.565 117.12C152.805 116.73 153.115 116.535 153.495 116.535H157.29L152.25 123.84L157.5 132ZM164.874 116.295C166.034 116.295 167.089 116.48 168.039 116.85C168.989 117.22 169.804 117.75 170.484 118.44C171.164 119.12 171.689 119.95 172.059 120.93C172.429 121.91 172.614 123.015 172.614 124.245C172.614 125.475 172.429 126.585 172.059 127.575C171.689 128.555 171.164 129.39 170.484 130.08C169.804 130.77 168.989 131.3 168.039 131.67C167.089 132.04 166.034 132.225 164.874 132.225C163.704 132.225 162.639 132.04 161.679 131.67C160.729 131.3 159.914 130.77 159.234 130.08C158.554 129.39 158.024 128.555 157.644 127.575C157.274 126.585 157.089 125.475 157.089 124.245C157.089 123.015 157.274 121.91 157.644 120.93C158.024 119.95 158.554 119.12 159.234 118.44C159.914 117.75 160.729 117.22 161.679 116.85C162.639 116.48 163.704 116.295 164.874 116.295ZM164.874 129.12C166.054 129.12 166.929 128.715 167.499 127.905C168.069 127.085 168.354 125.87 168.354 124.26C168.354 122.66 168.069 121.455 167.499 120.645C166.929 119.825 166.054 119.415 164.874 119.415C163.664 119.415 162.774 119.825 162.204 120.645C161.634 121.455 161.349 122.66 161.349 124.26C161.349 125.87 161.634 127.085 162.204 127.905C162.774 128.715 163.664 129.12 164.874 129.12ZM190.942 122.445C190.942 122.015 190.882 121.605 190.762 121.215C190.652 120.825 190.472 120.48 190.222 120.18C189.972 119.88 189.657 119.645 189.277 119.475C188.897 119.295 188.442 119.205 187.912 119.205C186.922 119.205 186.147 119.485 185.587 120.045C185.027 120.605 184.662 121.405 184.492 122.445H190.942ZM184.432 124.905C184.562 126.355 184.972 127.415 185.662 128.085C186.362 128.755 187.272 129.09 188.392 129.09C188.962 129.09 189.452 129.025 189.862 128.895C190.282 128.755 190.647 128.605 190.957 128.445C191.277 128.275 191.562 128.125 191.812 127.995C192.072 127.855 192.327 127.785 192.577 127.785C192.897 127.785 193.147 127.905 193.327 128.145L194.527 129.645C194.087 130.155 193.602 130.58 193.072 130.92C192.542 131.25 191.992 131.515 191.422 131.715C190.852 131.905 190.277 132.035 189.697 132.105C189.117 132.185 188.557 132.225 188.017 132.225C186.937 132.225 185.927 132.05 184.987 131.7C184.057 131.34 183.242 130.815 182.542 130.125C181.852 129.425 181.307 128.56 180.907 127.53C180.507 126.5 180.307 125.305 180.307 123.945C180.307 122.895 180.477 121.905 180.817 120.975C181.167 120.045 181.667 119.235 182.317 118.545C182.967 117.855 183.757 117.31 184.687 116.91C185.617 116.5 186.667 116.295 187.837 116.295C188.827 116.295 189.737 116.455 190.567 116.775C191.407 117.085 192.127 117.54 192.727 118.14C193.337 118.74 193.807 119.48 194.137 120.36C194.477 121.23 194.647 122.225 194.647 123.345C194.647 123.655 194.632 123.91 194.602 124.11C194.572 124.31 194.522 124.47 194.452 124.59C194.382 124.71 194.287 124.795 194.167 124.845C194.047 124.885 193.892 124.905 193.702 124.905H184.432ZM204.26 132V119.505L203.06 119.295C202.75 119.235 202.495 119.125 202.295 118.965C202.105 118.805 202.01 118.575 202.01 118.275V116.625H204.26V115.605C204.26 114.725 204.395 113.93 204.665 113.22C204.945 112.5 205.34 111.895 205.85 111.405C206.36 110.905 206.985 110.52 207.725 110.25C208.465 109.98 209.3 109.845 210.23 109.845C210.59 109.845 210.93 109.87 211.25 109.92C211.58 109.96 211.91 110.025 212.24 110.115L212.15 112.155C212.13 112.465 211.995 112.67 211.745 112.77C211.505 112.86 211.235 112.905 210.935 112.905C210.515 112.905 210.135 112.95 209.795 113.04C209.465 113.13 209.185 113.285 208.955 113.505C208.725 113.715 208.55 114.005 208.43 114.375C208.31 114.735 208.25 115.185 208.25 115.725V116.625H212.09V119.505H208.385V132H204.26ZM221.46 125.535C220.45 125.585 219.61 125.675 218.94 125.805C218.27 125.925 217.735 126.085 217.335 126.285C216.945 126.485 216.665 126.715 216.495 126.975C216.335 127.225 216.255 127.5 216.255 127.8C216.255 128.4 216.42 128.825 216.75 129.075C217.09 129.325 217.56 129.45 218.16 129.45C218.85 129.45 219.445 129.33 219.945 129.09C220.455 128.84 220.96 128.455 221.46 127.935V125.535ZM213.03 118.68C213.94 117.86 214.945 117.25 216.045 116.85C217.145 116.44 218.335 116.235 219.615 116.235C220.535 116.235 221.355 116.385 222.075 116.685C222.805 116.985 223.42 117.405 223.92 117.945C224.43 118.475 224.82 119.11 225.09 119.85C225.36 120.59 225.495 121.4 225.495 122.28V132H223.605C223.215 132 222.915 131.945 222.705 131.835C222.505 131.725 222.34 131.495 222.21 131.145L221.88 130.155C221.49 130.495 221.11 130.795 220.74 131.055C220.38 131.315 220.005 131.535 219.615 131.715C219.225 131.885 218.805 132.015 218.355 132.105C217.915 132.195 217.42 132.24 216.87 132.24C216.19 132.24 215.57 132.15 215.01 131.97C214.45 131.79 213.965 131.525 213.555 131.175C213.155 130.815 212.845 130.37 212.625 129.84C212.405 129.31 212.295 128.7 212.295 128.01C212.295 127.44 212.44 126.87 212.73 126.3C213.02 125.73 213.515 125.215 214.215 124.755C214.925 124.285 215.865 123.9 217.035 123.6C218.215 123.29 219.69 123.115 221.46 123.075V122.28C221.46 121.31 221.255 120.6 220.845 120.15C220.435 119.69 219.845 119.46 219.075 119.46C218.505 119.46 218.03 119.53 217.65 119.67C217.27 119.8 216.935 119.945 216.645 120.105C216.365 120.255 216.1 120.4 215.85 120.54C215.6 120.67 215.31 120.735 214.98 120.735C214.69 120.735 214.445 120.665 214.245 120.525C214.055 120.375 213.895 120.2 213.765 120L213.03 118.68ZM232.297 109.635V132H228.157V109.635H232.297ZM244.954 122.445C244.954 122.015 244.894 121.605 244.774 121.215C244.664 120.825 244.484 120.48 244.234 120.18C243.984 119.88 243.669 119.645 243.289 119.475C242.909 119.295 242.454 119.205 241.924 119.205C240.934 119.205 240.159 119.485 239.599 120.045C239.039 120.605 238.674 121.405 238.504 122.445H244.954ZM238.444 124.905C238.574 126.355 238.984 127.415 239.674 128.085C240.374 128.755 241.284 129.09 242.404 129.09C242.974 129.09 243.464 129.025 243.874 128.895C244.294 128.755 244.659 128.605 244.969 128.445C245.289 128.275 245.574 128.125 245.824 127.995C246.084 127.855 246.339 127.785 246.589 127.785C246.909 127.785 247.159 127.905 247.339 128.145L248.539 129.645C248.099 130.155 247.614 130.58 247.084 130.92C246.554 131.25 246.004 131.515 245.434 131.715C244.864 131.905 244.289 132.035 243.709 132.105C243.129 132.185 242.569 132.225 242.029 132.225C240.949 132.225 239.939 132.05 238.999 131.7C238.069 131.34 237.254 130.815 236.554 130.125C235.864 129.425 235.319 128.56 234.919 127.53C234.519 126.5 234.319 125.305 234.319 123.945C234.319 122.895 234.489 121.905 234.829 120.975C235.179 120.045 235.679 119.235 236.329 118.545C236.979 117.855 237.769 117.31 238.699 116.91C239.629 116.5 240.679 116.295 241.849 116.295C242.839 116.295 243.749 116.455 244.579 116.775C245.419 117.085 246.139 117.54 246.739 118.14C247.349 118.74 247.819 119.48 248.149 120.36C248.489 121.23 248.659 122.225 248.659 123.345C248.659 123.655 248.644 123.91 248.614 124.11C248.584 124.31 248.534 124.47 248.464 124.59C248.394 124.71 248.299 124.795 248.179 124.845C248.059 124.885 247.904 124.905 247.714 124.905H238.444ZM268.367 119.985C268.247 120.145 268.127 120.27 268.007 120.36C267.887 120.44 267.717 120.48 267.497 120.48C267.297 120.48 267.102 120.425 266.912 120.315C266.732 120.195 266.522 120.07 266.282 119.94C266.042 119.8 265.757 119.675 265.427 119.565C265.097 119.445 264.687 119.385 264.197 119.385C263.577 119.385 263.037 119.5 262.577 119.73C262.127 119.95 261.752 120.27 261.452 120.69C261.152 121.11 260.927 121.62 260.777 122.22C260.637 122.82 260.567 123.495 260.567 124.245C260.567 125.825 260.882 127.035 261.512 127.875C262.152 128.715 263.022 129.135 264.122 129.135C264.502 129.135 264.827 129.105 265.097 129.045C265.377 128.975 265.617 128.89 265.817 128.79C266.027 128.69 266.207 128.58 266.357 128.46C266.507 128.34 266.647 128.23 266.777 128.13C266.917 128.03 267.052 127.95 267.182 127.89C267.322 127.82 267.477 127.785 267.647 127.785C267.967 127.785 268.217 127.905 268.397 128.145L269.582 129.645C269.142 130.155 268.672 130.58 268.172 130.92C267.672 131.25 267.152 131.515 266.612 131.715C266.082 131.905 265.542 132.035 264.992 132.105C264.442 132.185 263.897 132.225 263.357 132.225C262.407 132.225 261.507 132.05 260.657 131.7C259.807 131.34 259.062 130.82 258.422 130.14C257.782 129.46 257.272 128.625 256.892 127.635C256.522 126.645 256.337 125.515 256.337 124.245C256.337 123.115 256.502 122.065 256.832 121.095C257.162 120.125 257.647 119.285 258.287 118.575C258.927 117.865 259.717 117.31 260.657 116.91C261.607 116.5 262.702 116.295 263.942 116.295C265.122 116.295 266.157 116.485 267.047 116.865C267.937 117.245 268.737 117.795 269.447 118.515L268.367 119.985ZM277.79 116.295C278.95 116.295 280.005 116.48 280.955 116.85C281.905 117.22 282.72 117.75 283.4 118.44C284.08 119.12 284.605 119.95 284.975 120.93C285.345 121.91 285.53 123.015 285.53 124.245C285.53 125.475 285.345 126.585 284.975 127.575C284.605 128.555 284.08 129.39 283.4 130.08C282.72 130.77 281.905 131.3 280.955 131.67C280.005 132.04 278.95 132.225 277.79 132.225C276.62 132.225 275.555 132.04 274.595 131.67C273.645 131.3 272.83 130.77 272.15 130.08C271.47 129.39 270.94 128.555 270.56 127.575C270.19 126.585 270.005 125.475 270.005 124.245C270.005 123.015 270.19 121.91 270.56 120.93C270.94 119.95 271.47 119.12 272.15 118.44C272.83 117.75 273.645 117.22 274.595 116.85C275.555 116.48 276.62 116.295 277.79 116.295ZM277.79 129.12C278.97 129.12 279.845 128.715 280.415 127.905C280.985 127.085 281.27 125.87 281.27 124.26C281.27 122.66 280.985 121.455 280.415 120.645C279.845 119.825 278.97 119.415 277.79 119.415C276.58 119.415 275.69 119.825 275.12 120.645C274.55 121.455 274.265 122.66 274.265 124.26C274.265 125.87 274.55 127.085 275.12 127.905C275.69 128.715 276.58 129.12 277.79 129.12ZM287.529 132V116.535H290.079C290.599 116.535 290.944 116.775 291.114 117.255L291.354 118.26C291.624 117.98 291.899 117.72 292.179 117.48C292.469 117.24 292.779 117.035 293.109 116.865C293.439 116.685 293.794 116.545 294.174 116.445C294.564 116.345 294.984 116.295 295.434 116.295C296.384 116.295 297.169 116.55 297.789 117.06C298.409 117.56 298.879 118.23 299.199 119.07C299.449 118.58 299.754 118.16 300.114 117.81C300.484 117.45 300.884 117.16 301.314 116.94C301.754 116.72 302.214 116.56 302.694 116.46C303.184 116.35 303.674 116.295 304.164 116.295C305.034 116.295 305.804 116.425 306.474 116.685C307.144 116.945 307.704 117.33 308.154 117.84C308.614 118.34 308.964 118.955 309.204 119.685C309.444 120.415 309.564 121.245 309.564 122.175V132H305.424V122.175C305.424 120.365 304.649 119.46 303.099 119.46C302.749 119.46 302.424 119.52 302.124 119.64C301.834 119.75 301.574 119.92 301.344 120.15C301.124 120.38 300.949 120.665 300.819 121.005C300.699 121.345 300.639 121.735 300.639 122.175V132H296.499V122.175C296.499 121.195 296.304 120.5 295.914 120.09C295.534 119.67 294.969 119.46 294.219 119.46C293.739 119.46 293.284 119.575 292.854 119.805C292.434 120.025 292.039 120.335 291.669 120.735V132H287.529ZM316.502 116.535V132H312.362V116.535H316.502ZM316.997 112.14C316.997 112.49 316.927 112.815 316.787 113.115C316.647 113.415 316.457 113.68 316.217 113.91C315.987 114.14 315.712 114.32 315.392 114.45C315.082 114.58 314.747 114.645 314.387 114.645C314.047 114.645 313.722 114.58 313.412 114.45C313.112 114.32 312.847 114.14 312.617 113.91C312.387 113.68 312.202 113.415 312.062 113.115C311.932 112.815 311.867 112.49 311.867 112.14C311.867 111.79 311.932 111.465 312.062 111.165C312.202 110.855 312.387 110.585 312.617 110.355C312.847 110.125 313.112 109.945 313.412 109.815C313.722 109.685 314.047 109.62 314.387 109.62C314.747 109.62 315.082 109.685 315.392 109.815C315.712 109.945 315.987 110.125 316.217 110.355C316.457 110.585 316.647 110.855 316.787 111.165C316.927 111.465 316.997 111.79 316.997 112.14ZM325.195 123.69C326.045 123.69 326.67 123.475 327.07 123.045C327.48 122.615 327.685 122.06 327.685 121.38C327.685 120.67 327.48 120.115 327.07 119.715C326.67 119.305 326.045 119.1 325.195 119.1C324.345 119.1 323.72 119.305 323.32 119.715C322.92 120.115 322.72 120.67 322.72 121.38C322.72 122.05 322.92 122.605 323.32 123.045C323.73 123.475 324.355 123.69 325.195 123.69ZM329.11 132.63C329.11 132.36 329.025 132.14 328.855 131.97C328.685 131.8 328.455 131.665 328.165 131.565C327.885 131.465 327.55 131.395 327.16 131.355C326.77 131.305 326.355 131.27 325.915 131.25C325.475 131.22 325.02 131.195 324.55 131.175C324.08 131.155 323.62 131.12 323.17 131.07C322.82 131.28 322.53 131.53 322.3 131.82C322.08 132.1 321.97 132.42 321.97 132.78C321.97 133.03 322.025 133.26 322.135 133.47C322.255 133.68 322.45 133.86 322.72 134.01C322.99 134.16 323.345 134.275 323.785 134.355C324.225 134.445 324.775 134.49 325.435 134.49C326.115 134.49 326.69 134.445 327.16 134.355C327.63 134.265 328.01 134.135 328.3 133.965C328.59 133.805 328.795 133.61 328.915 133.38C329.045 133.15 329.11 132.9 329.11 132.63ZM333.22 117.045V118.56C333.22 118.8 333.15 118.99 333.01 119.13C332.88 119.27 332.66 119.375 332.35 119.445L331.09 119.7C331.26 120.19 331.345 120.715 331.345 121.275C331.345 122.045 331.185 122.74 330.865 123.36C330.555 123.97 330.125 124.495 329.575 124.935C329.025 125.365 328.375 125.7 327.625 125.94C326.875 126.17 326.065 126.285 325.195 126.285C324.645 126.285 324.13 126.24 323.65 126.15C323.23 126.41 323.02 126.695 323.02 127.005C323.02 127.295 323.16 127.505 323.44 127.635C323.73 127.765 324.105 127.86 324.565 127.92C325.035 127.97 325.565 128.005 326.155 128.025C326.755 128.035 327.36 128.065 327.97 128.115C328.59 128.165 329.195 128.255 329.785 128.385C330.385 128.505 330.915 128.71 331.375 129C331.845 129.28 332.22 129.655 332.5 130.125C332.79 130.595 332.935 131.2 332.935 131.94C332.935 132.63 332.765 133.3 332.425 133.95C332.085 134.6 331.59 135.18 330.94 135.69C330.3 136.2 329.51 136.61 328.57 136.92C327.63 137.23 326.56 137.385 325.36 137.385C324.17 137.385 323.135 137.27 322.255 137.04C321.385 136.82 320.66 136.52 320.08 136.14C319.51 135.77 319.085 135.34 318.805 134.85C318.525 134.36 318.385 133.85 318.385 133.32C318.385 132.63 318.595 132.045 319.015 131.565C319.435 131.085 320.015 130.7 320.755 130.41C320.365 130.19 320.05 129.905 319.81 129.555C319.58 129.195 319.465 128.73 319.465 128.16C319.465 127.7 319.63 127.215 319.96 126.705C320.3 126.195 320.82 125.77 321.52 125.43C320.73 125.01 320.105 124.45 319.645 123.75C319.185 123.04 318.955 122.215 318.955 121.275C318.955 120.505 319.11 119.81 319.42 119.19C319.74 118.57 320.18 118.045 320.74 117.615C321.3 117.175 321.96 116.84 322.72 116.61C323.48 116.38 324.305 116.265 325.195 116.265C326.515 116.265 327.68 116.525 328.69 117.045H333.22ZM341.454 116.295C342.614 116.295 343.669 116.48 344.619 116.85C345.569 117.22 346.384 117.75 347.064 118.44C347.744 119.12 348.269 119.95 348.639 120.93C349.009 121.91 349.194 123.015 349.194 124.245C349.194 125.475 349.009 126.585 348.639 127.575C348.269 128.555 347.744 129.39 347.064 130.08C346.384 130.77 345.569 131.3 344.619 131.67C343.669 132.04 342.614 132.225 341.454 132.225C340.284 132.225 339.219 132.04 338.259 131.67C337.309 131.3 336.494 130.77 335.814 130.08C335.134 129.39 334.604 128.555 334.224 127.575C333.854 126.585 333.669 125.475 333.669 124.245C333.669 123.015 333.854 121.91 334.224 120.93C334.604 119.95 335.134 119.12 335.814 118.44C336.494 117.75 337.309 117.22 338.259 116.85C339.219 116.48 340.284 116.295 341.454 116.295ZM341.454 129.12C342.634 129.12 343.509 128.715 344.079 127.905C344.649 127.085 344.934 125.87 344.934 124.26C344.934 122.66 344.649 121.455 344.079 120.645C343.509 119.825 342.634 119.415 341.454 119.415C340.244 119.415 339.354 119.825 338.784 120.645C338.214 121.455 337.929 122.66 337.929 124.26C337.929 125.87 338.214 127.085 338.784 127.905C339.354 128.715 340.244 129.12 341.454 129.12ZM355.724 110.235V118.815C355.724 119.725 355.674 120.625 355.574 121.515C355.484 122.405 355.354 123.33 355.184 124.29H352.394C352.224 123.33 352.089 122.405 351.989 121.515C351.899 120.625 351.854 119.725 351.854 118.815V110.235H355.724ZM351.299 129.825C351.299 129.495 351.359 129.185 351.479 128.895C351.609 128.595 351.784 128.34 352.004 128.13C352.224 127.91 352.479 127.74 352.769 127.62C353.069 127.49 353.394 127.425 353.744 127.425C354.084 127.425 354.399 127.49 354.689 127.62C354.989 127.74 355.249 127.91 355.469 128.13C355.689 128.34 355.864 128.595 355.994 128.895C356.124 129.185 356.189 129.495 356.189 129.825C356.189 130.165 356.124 130.48 355.994 130.77C355.864 131.06 355.689 131.315 355.469 131.535C355.249 131.745 354.989 131.91 354.689 132.03C354.399 132.15 354.084 132.21 353.744 132.21C353.394 132.21 353.069 132.15 352.769 132.03C352.479 131.91 352.224 131.745 352.004 131.535C351.784 131.315 351.609 131.06 351.479 130.77C351.359 130.48 351.299 130.165 351.299 129.825ZM365.457 129.825C365.457 129.495 365.517 129.185 365.637 128.895C365.767 128.595 365.942 128.34 366.162 128.13C366.382 127.91 366.637 127.74 366.927 127.62C367.227 127.49 367.552 127.425 367.902 127.425C368.242 127.425 368.562 127.49 368.862 127.62C369.162 127.74 369.422 127.91 369.642 128.13C369.862 128.34 370.032 128.595 370.152 128.895C370.282 129.185 370.347 129.495 370.347 129.825C370.347 130.165 370.282 130.48 370.152 130.77C370.032 131.06 369.862 131.315 369.642 131.535C369.422 131.745 369.162 131.91 368.862 132.03C368.562 132.15 368.242 132.21 367.902 132.21C367.552 132.21 367.227 132.15 366.927 132.03C366.637 131.91 366.382 131.745 366.162 131.535C365.942 131.315 365.767 131.06 365.637 130.77C365.517 130.48 365.457 130.165 365.457 129.825ZM365.457 119.325C365.457 118.995 365.517 118.685 365.637 118.395C365.767 118.095 365.942 117.84 366.162 117.63C366.382 117.41 366.637 117.24 366.927 117.12C367.227 116.99 367.552 116.925 367.902 116.925C368.242 116.925 368.562 116.99 368.862 117.12C369.162 117.24 369.422 117.41 369.642 117.63C369.862 117.84 370.032 118.095 370.152 118.395C370.282 118.685 370.347 118.995 370.347 119.325C370.347 119.665 370.282 119.98 370.152 120.27C370.032 120.56 369.862 120.815 369.642 121.035C369.422 121.245 369.162 121.41 368.862 121.53C368.562 121.65 368.242 121.71 367.902 121.71C367.552 121.71 367.227 121.65 366.927 121.53C366.637 121.41 366.382 121.245 366.162 121.035C365.942 120.815 365.767 120.56 365.637 120.27C365.517 119.98 365.457 119.665 365.457 119.325ZM374.959 122.595C374.959 120.565 374.719 118.56 374.239 116.58C373.769 114.6 373.094 112.75 372.214 111.03C372.094 110.81 372.024 110.615 372.004 110.445C371.994 110.275 372.009 110.125 372.049 109.995C372.099 109.865 372.169 109.755 372.259 109.665C372.359 109.575 372.464 109.495 372.574 109.425L374.419 108.345C375.149 109.475 375.774 110.62 376.294 111.78C376.814 112.93 377.239 114.095 377.569 115.275C377.899 116.455 378.139 117.655 378.289 118.875C378.449 120.095 378.529 121.335 378.529 122.595C378.529 123.865 378.449 125.11 378.289 126.33C378.139 127.54 377.899 128.74 377.569 129.93C377.239 131.11 376.814 132.275 376.294 133.425C375.774 134.575 375.149 135.72 374.419 136.86L372.574 135.765C372.464 135.695 372.359 135.615 372.259 135.525C372.169 135.435 372.099 135.325 372.049 135.195C372.009 135.065 371.994 134.915 372.004 134.745C372.024 134.585 372.094 134.395 372.214 134.175C373.094 132.445 373.769 130.59 374.239 128.61C374.719 126.63 374.959 124.625 374.959 122.595Z" fill="white"/>
<g filter="url(#filter0_d_40_243)">
<rect x="37" y="54" width="299" height="14" fill="#FD9520"/>
<path d="M46.3 54.2L46.9 53.5V53C46.9 50.2 49.5 48.1 52.3 48.6C52.5 48.6 52.7 48.8 52.7 49.1V53.5L53.4 54.2H46.3ZM47.3 41.5C50.5 47.7 49.3 48.3 48 48.1C47.4 47.9 46.9 47.4 46.9 46.7V41.6C46.9 41.4 47.2 41.3 47.3 41.5ZM58.6 52.2V16.8H46.3L46.9 16.2V6.4L46.4 5.9H58.6C58.7 3.5 59.1 1.5 59.7 0H40C40.3 0.999999 40.6 2.2 40.8 3.7C40.9 5.1 41 6.5 41 7.9V22.7H53.4L52.7 23.4V46C52.7 46.4 52.4 46.7 52 46.7C50.3 46.9 49.1 44.8 48.2 42.6C47.3 40.3 46.9 37.9 46.9 35.5V30H41V52.2C41 53.6 40.9 55 40.8 56.4C40.6 57.9 40.3 59.1 40 60H59.7C59.3 59.1 59 57.9 58.9 56.4C58.7 55 58.6 53.6 58.6 52.2Z" fill="white"/>
<path d="M69.907 53.1C69.807 53.2 69.707 53.3 69.607 53.4L68.907 54.2C68.907 54.2 68.207 54.4 68.207 54.6C68.207 54.7 67.307 55.1 67.307 55.1C67.307 55.1 67.907 54.8 68.007 54.5C68.107 54.2 68.607 54 68.607 54L68.807 53.7L68.607 53.4C68.607 53.4 68.907 53.4 68.907 53.8L69.307 53.4L69.407 53.3C69.407 53.3 69.307 52.9 69.507 52.8C69.607 52.6 69.607 51.9 69.607 51.9V49L68.907 48.3H69.607H69.907C70.707 48.4 71.607 48.8 71.107 50.7C70.907 51.6 70.407 52.4 69.907 53.1ZM81.307 54.2L71.307 54.1C70.907 54.1 70.707 53.8 70.807 53.4C70.907 52.9 71.207 52.2 71.607 51.2C71.707 51.2 71.707 51.1 71.707 51C72.507 49.3 74.207 48.3 76.107 48.3H81.307V42.4H68.907L69.607 41.7V6.6L68.907 5.9H69.807H81.307C81.407 3.5 81.807 1.5 82.407 0H62.707C63.007 0.999999 63.307 2.2 63.507 3.7C63.607 5.1 63.707 6.5 63.707 7.9V52.2C63.707 53.6 63.607 55 63.507 56.4C63.307 57.9 63.007 59.1 62.707 60H69.007C69.207 59.8 69.407 59.6 69.507 59.4C69.507 59.2 69.507 59 69.507 58.8C69.607 58.6 69.807 58.5 69.807 58.3C69.807 58 69.507 57.7 69.307 57.7C69.207 57.6 69.207 57.5 69.307 57.5C69.607 57.4 70.007 57.9 70.207 57.9C70.207 57.8 70.207 57.8 70.207 57.7C70.207 57.6 70.107 57.5 70.207 57.4V57.3V57.2C70.407 57 70.707 56.9 70.907 56.9C71.007 56.9 71.007 56.9 71.107 56.8C71.207 56.8 71.207 57 71.107 57C70.907 57 70.807 57.1 70.707 57.1C70.507 57.2 70.507 57.4 70.407 57.8C70.407 57.9 70.507 57.9 70.507 58C70.507 58 70.407 58.1 70.407 58.2C70.307 58.3 70.107 58.5 70.107 58.7C70.107 58.8 70.107 59 70.107 59.2C70.207 59.3 70.307 59.3 70.307 59.3C70.407 59.4 70.707 59.5 70.707 59.5C70.807 59.5 70.807 59.7 70.707 59.7C70.507 59.6 70.407 59.6 70.207 59.7C70.207 59.8 70.207 59.9 70.307 59.8C70.407 59.8 70.607 59.8 70.707 59.9C70.807 59.9 70.907 60 71.007 60H81.307H82.407C81.807 58.6 81.407 56.6 81.307 54.2Z" fill="white"/>
<path d="M102.919 3.7C103.119 2.2 103.319 0.999999 103.719 0H95.7188C96.0187 0.999999 96.3187 2.2 96.5187 3.7C96.6187 5.1 96.7188 6.5 96.7188 7.9V52.2C96.7188 53.6 96.6187 55 96.5187 56.4C96.3187 57.9 96.0187 59.1 95.7188 60H103.719C103.319 59.1 103.119 57.9 102.919 56.4C102.719 55 102.619 53.6 102.619 52.2V7.9C102.619 6.5 102.719 5.1 102.919 3.7Z" fill="white"/>
<path d="M119.107 15.2C118.907 15 118.507 14.5 118.807 13.6L119.407 14.3V15.1C119.407 15.2 119.307 15.3 119.107 15.2ZM125.107 52.2V7.9C125.107 6.5 125.207 5.1 125.407 3.7C125.607 2.2 125.807 0.999999 126.207 0H118.407C118.907 1.2 119.207 3 119.407 5V5.9L113.607 0.0999985V0H106.707C107.007 0.9 107.307 2.2 107.507 3.6C107.607 5 107.707 6.4 107.707 7.8V52.3C107.707 53.7 107.607 55.1 107.507 56.5C107.307 57.9 107.007 59.2 106.707 60H114.707C114.307 59.1 114.007 57.9 113.907 56.4C113.707 55 113.607 53.6 113.607 52.2V12.6C113.607 12 113.807 11.4 114.207 10.9C114.607 10.4 115.207 10.1 115.907 10.8C116.607 11.5 116.407 12.6 116.207 13.4C116.107 13.9 115.907 14.4 115.707 14.9C115.607 15.3 115.307 15.9 115.307 16.4C115.307 16.6 115.407 16.9 115.607 17.1C115.707 17.2 115.807 17.2 115.907 17.2C116.107 17.2 116.207 17 116.207 16.9C116.507 16.3 116.307 15.7 116.307 15.1C116.307 14.5 116.307 13.9 116.707 13.3C117.207 12.4 118.007 12.9 118.307 13.2C118.307 13.2 117.707 14.5 118.907 16C119.207 16.5 119.407 17 119.407 17.5V53.8C119.407 55 119.307 56.3 119.107 57.6C118.907 58.5 118.707 59.4 118.407 60H126.207C125.807 59.1 125.607 57.9 125.407 56.4C125.207 55 125.107 53.6 125.107 52.2Z" fill="white"/>
<path d="M141.516 5.9H142.416C142.416 6 142.516 6.1 142.516 6.3C142.516 6.6 142.116 6.5 142.116 6.5L141.516 5.9ZM142.816 6.2C143.016 6.1 143.816 6 144.316 5.9H147.916C148.016 3.5 148.416 1.5 149.016 0.0999985H129.316C129.916 1.5 130.216 3.5 130.316 5.9H136.716L136.216 6.5V52.5C136.216 53.9 136.116 55.2 135.916 56.6C135.716 58 135.516 59.2 135.116 60.1H143.116C142.716 59.2 142.516 58.1 142.316 56.8C142.116 55.5 142.116 54.2 142.116 52.9V8.6C142.116 6.4 142.516 6.4 142.816 6.2Z" fill="white"/>
<path d="M159.223 53.1C159.123 53.2 159.023 53.3 158.923 53.4L158.223 54.2C158.223 54.2 157.523 54.4 157.523 54.6C157.523 54.7 156.623 55.1 156.623 55.1C156.623 55.1 157.223 54.8 157.323 54.5C157.423 54.2 157.923 54 157.923 54L158.123 53.7L157.923 53.4C157.923 53.4 158.223 53.4 158.223 53.8L158.623 53.4L158.723 53.3C158.723 53.3 158.623 52.9 158.823 52.8C158.923 52.6 158.923 51.9 158.923 51.9V49L158.223 48.3H158.923H159.223C160.023 48.4 160.923 48.8 160.423 50.7C160.223 51.6 159.723 52.4 159.223 53.1ZM170.623 54.2L160.623 54.1C160.223 54.1 160.023 53.8 160.123 53.4C160.223 52.9 160.523 52.2 160.923 51.2C161.023 51.2 161.023 51.1 161.023 51C161.823 49.3 163.523 48.3 165.423 48.3H170.623V42.4H158.223L158.923 41.7V6.6L158.223 5.9H159.123H170.623C170.723 3.5 171.123 1.5 171.723 0H152.023C152.323 0.999999 152.623 2.2 152.823 3.7C152.923 5.1 153.023 6.5 153.023 7.9V52.2C153.023 53.6 152.923 55 152.823 56.4C152.623 57.9 152.323 59.1 152.023 60H158.323C158.523 59.8 158.723 59.6 158.823 59.4C158.823 59.2 158.823 59 158.823 58.8C158.923 58.6 159.123 58.5 159.123 58.3C159.123 58 158.823 57.7 158.623 57.7C158.523 57.6 158.523 57.5 158.623 57.5C158.923 57.4 159.323 57.9 159.523 57.9C159.523 57.8 159.523 57.8 159.523 57.7C159.523 57.6 159.423 57.5 159.523 57.4V57.3V57.2C159.723 57 160.023 56.9 160.223 56.9C160.323 56.9 160.323 56.9 160.423 56.8C160.523 56.8 160.523 57 160.423 57C160.223 57 160.123 57.1 160.023 57.1C159.823 57.2 159.823 57.4 159.723 57.8C159.723 57.9 159.823 57.9 159.823 58C159.823 58 159.723 58.1 159.723 58.2C159.623 58.3 159.423 58.5 159.423 58.7C159.423 58.8 159.423 59 159.423 59.2C159.523 59.3 159.623 59.3 159.623 59.3C159.723 59.4 160.023 59.5 160.023 59.5C160.123 59.5 160.123 59.7 160.023 59.7C159.823 59.6 159.723 59.6 159.523 59.7C159.523 59.8 159.523 59.9 159.623 59.8C159.723 59.8 159.923 59.8 160.023 59.9C160.123 59.9 160.223 60 160.323 60H170.623H171.723C171.123 58.6 170.723 56.6 170.623 54.2Z" fill="white"/>
<path d="M187.43 33.2C187.43 33.3 186.83 34.4 184.63 35.7C183.23 36.4 182.53 35.9 182.13 35.4C181.83 35 181.63 34.5 181.63 34V27.4L187.43 33.2ZM187.43 37.1C187.43 37.1 185.73 36.9 185.93 35.7C186.13 34.9 186.53 34.4 186.93 34.2C187.13 34 187.43 34.2 187.43 34.4V37.1ZM188.03 5.9L187.43 6.5V7.8C187.43 8.1 187.13 8.4 186.83 8.4C184.53 8.5 182.83 7 182.13 6.3C182.03 6.2 182.13 5.9 182.23 5.9H188.03ZM187.43 14.7L182.33 19.8L181.63 19.1V7.4C181.63 7.1 182.03 7 182.23 7.2C183.43 8.3 185.43 8.8 186.63 9C187.03 9.1 187.43 9.6 187.43 10.1V14.7ZM193.33 52.2V31L186.53 23.9L193.33 16.9V7.9C193.33 6.5 193.43 5.1 193.63 3.7C193.73 2.2 194.03 0.999999 194.43 0H174.73C175.03 0.999999 175.33 2.2 175.53 3.7C175.63 5.1 175.73 6.5 175.73 7.9V52.2C175.73 53.6 175.63 55 175.53 56.4C175.33 57.9 175.03 59.1 174.73 60H182.73C182.33 59.1 182.13 57.9 181.93 56.4C181.73 55 181.63 53.6 181.63 52.2V39.3C181.63 38.4 182.03 37.5 182.83 36.9C182.93 36.9 182.93 36.8 182.93 36.8C184.83 35.5 187.43 36.9 187.43 39.2V52.2C187.43 53.6 187.33 55 187.23 56.4C187.03 57.9 186.73 59.1 186.33 60H194.43C194.03 59.1 193.73 57.9 193.63 56.4C193.43 55 193.33 53.6 193.33 52.2Z" fill="white"/>
<path d="M204.637 53.1C204.537 53.2 204.438 53.3 204.337 53.4L203.637 54.2C203.637 54.2 202.938 54.4 202.938 54.6C202.938 54.7 202.038 55.1 202.038 55.1C202.038 55.1 202.637 54.8 202.738 54.5C202.838 54.2 203.337 54 203.337 54L203.538 53.7L203.337 53.4C203.337 53.4 203.637 53.4 203.637 53.8L204.038 53.4L204.137 53.3C204.137 53.3 204.038 52.9 204.238 52.8C204.338 52.6 204.337 51.9 204.337 51.9V49L203.637 48.3H204.337H204.637C205.438 48.4 206.337 48.8 205.837 50.7C205.637 51.6 205.137 52.4 204.637 53.1ZM216.038 54.2L206.038 54.1C205.638 54.1 205.438 53.8 205.538 53.4C205.638 52.9 205.938 52.2 206.337 51.2C206.438 51.2 206.438 51.1 206.438 51C207.238 49.3 208.938 48.3 210.837 48.3H216.038V42.4H203.637L204.337 41.7V6.6L203.637 5.9H204.538H216.038C216.138 3.5 216.537 1.5 217.137 0H197.438C197.738 0.999999 198.038 2.2 198.238 3.7C198.338 5.1 198.438 6.5 198.438 7.9V52.2C198.438 53.6 198.338 55 198.238 56.4C198.038 57.9 197.738 59.1 197.438 60H203.738C203.938 59.8 204.137 59.6 204.238 59.4C204.238 59.2 204.238 59 204.238 58.8C204.338 58.6 204.538 58.5 204.538 58.3C204.538 58 204.238 57.7 204.038 57.7C203.938 57.6 203.938 57.5 204.038 57.5C204.338 57.4 204.738 57.9 204.938 57.9C204.938 57.8 204.938 57.8 204.938 57.7C204.938 57.6 204.837 57.5 204.938 57.4V57.3V57.2C205.137 57 205.438 56.9 205.637 56.9C205.738 56.9 205.737 56.9 205.837 56.8C205.938 56.8 205.938 57 205.837 57C205.637 57 205.538 57.1 205.438 57.1C205.238 57.2 205.238 57.4 205.137 57.8C205.137 57.9 205.238 57.9 205.238 58C205.238 58 205.137 58.1 205.137 58.2C205.037 58.3 204.837 58.5 204.837 58.7C204.837 58.8 204.837 59 204.837 59.2C204.938 59.3 205.038 59.3 205.038 59.3C205.138 59.4 205.438 59.5 205.438 59.5C205.538 59.5 205.538 59.7 205.438 59.7C205.238 59.6 205.137 59.6 204.938 59.7C204.938 59.8 204.938 59.9 205.038 59.8C205.138 59.8 205.337 59.8 205.438 59.9C205.538 59.9 205.637 60 205.738 60H216.038H217.137C216.537 58.6 216.138 56.6 216.038 54.2Z" fill="white"/>
<path d="M226.445 54.2L227.045 53.5V53C227.045 50.2 229.645 48.1 232.445 48.6C232.645 48.6 232.845 48.8 232.845 49.1V53.5L233.545 54.2H226.445ZM227.445 41.5C230.645 47.7 229.445 48.3 228.145 48.1C227.545 47.9 227.045 47.4 227.045 46.7V41.6C227.045 41.4 227.345 41.3 227.445 41.5ZM238.745 52.2V16.8H226.445L227.045 16.2V6.4L226.545 5.9H238.745C238.845 3.5 239.245 1.5 239.845 0H220.145C220.445 0.999999 220.745 2.2 220.945 3.7C221.045 5.1 221.145 6.5 221.145 7.9V22.7H233.545L232.845 23.4V46C232.845 46.4 232.545 46.7 232.145 46.7C230.445 46.9 229.245 44.8 228.345 42.6C227.445 40.3 227.045 37.9 227.045 35.5V30H221.145V52.2C221.145 53.6 221.045 55 220.945 56.4C220.745 57.9 220.445 59.1 220.145 60H239.845C239.445 59.1 239.145 57.9 239.045 56.4C238.845 55 238.745 53.6 238.745 52.2Z" fill="white"/>
<path d="M249.152 54.2L249.752 53.5V53C249.752 50.2 252.352 48.1 255.152 48.6C255.352 48.6 255.552 48.8 255.552 49.1V53.5L256.252 54.2H249.152ZM250.152 41.5C253.352 47.7 252.152 48.3 250.852 48.1C250.252 47.9 249.752 47.4 249.752 46.7V41.6C249.752 41.4 250.052 41.3 250.152 41.5ZM261.452 52.2V16.8H249.152L249.752 16.2V6.4L249.252 5.9H261.452C261.552 3.5 261.952 1.5 262.552 0H242.852C243.152 0.999999 243.452 2.2 243.652 3.7C243.752 5.1 243.852 6.5 243.852 7.9V22.7H256.252L255.552 23.4V46C255.552 46.4 255.252 46.7 254.852 46.7C253.152 46.9 251.952 44.8 251.052 42.6C250.152 40.3 249.752 37.9 249.752 35.5V30H243.852V52.2C243.852 53.6 243.752 55 243.652 56.4C243.452 57.9 243.152 59.1 242.852 60H262.552C262.152 59.1 261.852 57.9 261.752 56.4C261.552 55 261.452 53.6 261.452 52.2Z" fill="white"/>
<path d="M278.259 6.6V15.6C278.259 15.9 277.959 16.1 277.659 16C277.159 15.9 276.359 15.6 275.359 15.2C275.359 15.1 275.259 15.1 275.159 15.1C273.559 14.3 272.459 12.6 272.459 10.7V6.5L271.959 5.9H278.859L278.259 6.6ZM278.259 44.4C277.659 44.6 276.959 44.6 276.959 43.9C276.959 43.4 277.359 43.1 277.759 42.9C278.059 42.8 278.259 42.9 278.259 43.2V44.4ZM272.459 16.7C272.559 16 273.059 15.2 274.859 15.6C276.059 15.9 277.059 16.7 277.859 17.4C278.059 17.6 278.259 18 278.259 18.4V38.9C278.259 39.9 278.059 40.9 277.559 41.8C276.959 42.8 276.059 43.7 274.959 44.3C274.959 44.3 274.859 44.3 274.759 44.4C273.459 44.9 272.959 44.1 272.659 43.4C272.659 43.3 272.659 43.3 272.559 43.2C272.459 42.9 272.459 42.6 272.459 42.3V16.7ZM271.959 54.2L272.459 53.6V48.5C272.559 47.5 273.059 46.4 273.859 45.7C274.159 45.4 274.559 45.1 274.959 45C276.159 44.7 277.159 45 277.759 45.3C277.759 45.3 277.759 45.3 277.859 45.4C278.059 45.5 278.259 45.9 278.259 46.2V53.5L278.859 54.2H271.959ZM284.159 52.2V7.9C284.159 6.5 284.259 5.1 284.459 3.7C284.559 2.2 284.859 0.999999 285.259 0H265.559C265.859 0.999999 266.159 2.2 266.359 3.7C266.459 5.1 266.559 6.5 266.559 7.9V52.2C266.559 53.6 266.459 55 266.359 56.4C266.159 57.9 265.859 59.1 265.559 60H285.259C284.859 59.1 284.559 57.9 284.459 56.4C284.259 55 284.159 53.6 284.159 52.2Z" fill="white"/>
<path d="M294.566 54.1L295.166 53.6V43.4C295.166 42.7 295.966 42.4 296.466 42.8C298.666 44.8 300.966 53.6 300.966 53.6L301.566 54.1H294.566ZM299.566 44.3C299.566 44.3 299.566 44.3 299.666 44.3C300.466 44.5 300.966 45.2 300.966 46V49.3C300.966 51 299.466 47.3 299.166 46.4C298.766 45.6 298.266 44 299.566 44.3ZM306.866 52.2V7.9C306.866 6.5 306.966 5.1 307.166 3.7C307.266 2.2 307.566 0.999999 307.966 0H299.866C300.266 0.999999 300.566 2.2 300.766 3.6C300.866 5 300.966 6.5 300.966 7.9V43.2C300.966 43.6 300.566 44 300.166 43.9C298.066 43.7 296.766 42.7 296.066 41.7C295.466 40.7 295.166 39.7 295.166 38.5V7.7C295.166 6.3 295.266 4.9 295.466 3.5C295.666 2.2 295.866 0.9 296.266 0H288.266C288.566 0.999999 288.866 2.2 289.066 3.7C289.166 5.1 289.266 6.5 289.266 7.9V52.2C289.266 53.6 289.166 55 289.066 56.4C288.866 57.9 288.566 59.1 288.266 60H307.966C307.566 59.1 307.266 57.9 307.166 56.4C306.966 55 306.866 53.6 306.866 52.2Z" fill="white"/>
<path d="M321.02 40.3252C321.02 38.2656 321.203 36.5041 321.568 35.0406C321.986 33.523 322.664 32.0867 323.604 30.7317C324.595 29.3767 325.926 27.9675 327.596 26.5041C329.631 24.7154 331.197 23.2249 332.293 22.0325C333.441 20.8401 334.25 19.6748 334.72 18.5366C335.189 17.3984 335.424 16.0163 335.424 14.3902C335.424 11.7886 334.615 9.7832 332.997 8.37398C331.38 6.96477 329.031 6.26016 325.952 6.26016C323.395 6.26016 321.125 6.61247 319.141 7.31708C317.158 7.96748 315.253 8.75339 313.427 9.6748L311 3.98374C313.088 2.84553 315.384 1.89702 317.889 1.13821C320.446 0.379404 323.29 0 326.422 0C331.38 0 335.215 1.27371 337.929 3.82114C340.643 6.36856 342 9.8374 342 14.2276C342 16.6667 341.609 18.7534 340.826 20.4878C340.095 22.168 339.025 23.7398 337.616 25.2033C336.259 26.6125 334.641 28.1301 332.763 29.7561C331.04 31.2737 329.71 32.6016 328.77 33.7398C327.883 34.878 327.283 36.0163 326.97 37.1545C326.657 38.2385 326.5 39.5664 326.5 41.1382V42.5203H321.02V40.3252ZM319.22 54.4715C319.22 52.4661 319.663 51.0569 320.551 50.2439C321.49 49.4309 322.664 49.0244 324.073 49.0244C325.378 49.0244 326.5 49.4309 327.439 50.2439C328.379 51.0569 328.848 52.4661 328.848 54.4715C328.848 56.4228 328.379 57.832 327.439 58.6992C326.5 59.5664 325.378 60 324.073 60C322.664 60 321.49 59.5664 320.551 58.6992C319.663 57.832 319.22 56.4228 319.22 54.4715Z" fill="white"/>
</g>
<defs>
<filter id="filter0_d_40_243" x="33" y="0" width="313" height="76" filterUnits="userSpaceOnUse" color-interpolation-filters="sRGB">
<feFlood flood-opacity="0" result="BackgroundImageFix"/>
<feColorMatrix in="SourceAlpha" type="matrix" values="0 0 0 0 0 0 0 0 0 0 0 0 0 0 0 0 0 0 127 0" result="hardAlpha"/>
<feOffset dy="4"/>
<feGaussianBlur stdDeviation="2"/>
<feComposite in2="hardAlpha" operator="out"/>
<feColorMatrix type="matrix" values="0 0 0 0 0 0 0 0 0 0 0 0 0 0 0 0 0 0 0.25 0"/>
<feBlend mode="normal" in2="BackgroundImageFix" result="effect1_dropShadow_40_243"/>
<feBlend mode="normal" in="SourceGraphic" in2="effect1_dropShadow_40_243" result="shape"/>
</filter>
</defs>
</svg>
