<?xml version="1.0" encoding="utf-8"?>
<!-- Generator: Adobe Illustrator 26.0.1, SVG Export Plug-In . SVG Version: 6.00 Build 0)  -->
<svg version="1.1" id="Camada_1" xmlns="http://www.w3.org/2000/svg" xmlns:xlink="http://www.w3.org/1999/xlink" x="0px" y="0px"
	 viewBox="0 0 302 333" style="enable-background:new 0 0 302 333;" xml:space="preserve">
<style type="text/css">
	.st0{fill:#FFA400;}
</style>
<g>
	<rect x="35.33" y="276.66" class="st0" width="131.74" height="29.14"/>
	<g>
		<path d="M216.62,14.86c-2.2,4.27-3.73,10.31-4.8,16.99c-1.05,6.61-1.5,13.27-1.5,19.93v189.95l-68.36,54.9v0.23h-0.29H101.2
			c2.2-4.27,3.73-10.31,4.8-16.99c1.05-6.61,1.5-13.27,1.5-19.93V51.81c0-6.66-0.45-13.32-1.5-19.93
			c-1.06-6.68-2.59-12.72-4.8-16.99l20.59,0c0.24,0.26,0.55,0.49,0.9,0.66c0.88,0.41,2.09,0.58,2.47,1.34
			c0.31,0.63-0.1,1.46,0.47,1.95c0.25,0.22,0.63,0.3,0.97,0.41c1.25,0.43,2.08,1.38,2.84,2.29c1.14,1.37,2.29,2.74,3.43,4.11
			c0.49,0.59,1,1.19,1.72,1.61c2.28,1.33,5.49,0.29,8.28,0.61c-1.87-1.66-4.57-2.59-6.41-4.28c-1.64-1.5-2.44-3.45-3.2-5.35
			c-0.09-0.22-0.18-0.46-0.09-0.68c0.07-0.17,0.24-0.31,0.39-0.44c0.77-0.65,1.36-1.42,1.77-2.25h0.61
			c0.61,0.94,2.02,1.53,3.33,1.32c1.02-0.17,1.88-0.75,2.91-0.86c0.57-0.06,1.14,0.03,1.72,0.06c0.57,0.03,1.19,0,1.66-0.26
			c0.12-0.07,0.23-0.16,0.31-0.26l49.74-0.01c0.57,0.33,1.09,0.69,1.43,1.18c0.28,0.41,0.41,0.88,0.59,1.33
			c0.25,0.64,0.65,1.29,1.35,1.66c0.7,0.37,1.76,0.36,2.28-0.17c0.21-0.22,0.38-0.53,0.72-0.55c0.21-0.01,0.39,0.09,0.57,0.18
			c0.56,0.26,1.25,0.35,1.88,0.22c0.11-0.02,0.23-0.05,0.31-0.12c0.28-0.22-0.02-0.58-0.2-0.87c-0.36-0.58-0.06-1.36,0.64-1.68
			c0.49-0.22,1.15-0.25,1.45-0.62c0.12-0.14,0.16-0.32,0.29-0.46c0.04-0.04,0.08-0.08,0.13-0.12L216.62,14.86z M141.96,205.25v2.68
			c0,1.02,0.97,1.88,2.23,1.96c2.86,0.18,5.64-0.3,5.56-2.88c-0.06-2.02-1.79-3.42-3.9-4.38c-0.08-0.04-0.16-0.08-0.25-0.11
			c-1.09-0.48-5.6-2.42-9.68-3.41c-4.68-1.13-7.34-2.13-7.34-2.13s-0.94-1.13-0.94-1.75s-2.34-3.63-2.34-3.63l-4.06-1.25l3.43,1.88
			l3.12,5.64l4.53,1l-4.99-0.12l-2.19,2l2.81-1.25l7.65,0.5l4.37,1.7C139.99,201.69,141.96,202.57,141.96,205.25z M179.45,42.56
			h-3.59h-1.48h-32.42h-3.27l3.27,2.63v138.35c0,4.32,1.09,8.63,3.45,12.52c3.32,5.48,8.79,10.06,15.85,12.82
			c0.37,0.14,0.74,0.28,1.11,0.42c7.49,2.69,10.96-1.35,12.5-4.75c0-0.01,0.01-0.02,0.01-0.03c0.69-1.53,0.97-3.15,0.97-4.77V45.44
			L179.45,42.56z M175.86,228.63c-0.69-4.99-3.48-9.69-8.12-13.1c-1.95-1.43-4.17-2.6-6.63-3.2c-6.52-1.59-12.46,0.01-15.98,1.42
			c-0.16,0.07-0.32,0.14-0.47,0.21c-1.73,0.86-2.69,2.45-2.69,4.09v39.45l32.45-26.06C175.34,230.69,175.86,229.68,175.86,228.63z"
			/>
		<path class="st0" d="M245.76,299.67c-16.45,0-29.14-12.69-29.14-29.14s12.69-29.14,29.14-29.14c15.51,0,28.2,12.69,28.2,29.14
			S261.27,299.67,245.76,299.67z"/>
	</g>
</g>
</svg>
